<?xml version="1.0" encoding="UTF-8"?>
<!-- Generator: visioncortex VTracer 0.6.3 -->
<svg version="1.1" xmlns="http://www.w3.org/2000/svg" width="1280" height="720">
<path d="M0 0 C3 2.08 4.59 4.15 6.11 7.46 C6.36 10.33 6.36 10.33 6.11 12.46 C6.77 12.46 7.43 12.46 8.11 12.46 C8.44 18.65 7.69 22.8 5.11 28.46 C4.45 28.79 3.79 29.12 3.11 29.46 C2.78 30.45 2.45 31.44 2.11 32.46 C1.45 32.46 0.79 32.46 0.11 32.46 C0.11 31.8 0.11 31.14 0.11 30.46 C-0.88 30.46 -1.87 30.46 -2.89 30.46 C-2.89 31.12 -2.89 31.78 -2.89 32.46 C-3.55 32.46 -4.21 32.46 -4.89 32.46 C-4.89 33.12 -4.89 33.78 -4.89 34.46 C-5.51 34.38 -6.13 34.31 -6.77 34.24 C-12.52 33.61 -18.11 33.36 -23.89 33.46 C-23.56 34.12 -23.23 34.78 -22.89 35.46 C-17.03 36.67 -10.86 36.57 -4.89 36.46 C-4.56 37.78 -4.23 39.1 -3.89 40.46 C-4.22 39.8 -4.55 39.14 -4.89 38.46 C-5.88 38.46 -6.87 38.46 -7.89 38.46 C-7.23 39.78 -6.57 41.1 -5.89 42.46 C-15.17 43.88 -24.14 44.54 -32.16 39.06 C-35.06 36.38 -36.65 33.17 -37.89 29.46 C-37.89 28.8 -37.89 28.14 -37.89 27.46 C-43.51 32.02 -48.4 36.77 -52.89 42.46 C-56.17 46.33 -59.49 50.12 -63.14 53.64 C-65.64 56.19 -67.14 58.4 -68.89 61.46 C-71.08 64.19 -73.33 66.83 -75.67 69.44 C-78.82 72.98 -81.55 76.32 -83.89 80.46 C-85.23 82.13 -86.56 83.79 -87.89 85.46 C-89.95 88.27 -91.97 91.1 -93.99 93.93 C-95.53 95.98 -97.08 97.68 -98.89 99.46 C-99.64 100.69 -99.64 100.69 -100.39 101.96 C-101.75 104.22 -103.05 105.62 -104.89 107.46 C-105.31 108.16 -105.72 108.86 -106.14 109.58 C-108.7 113.78 -111.59 117.81 -114.89 121.46 C-115.55 121.46 -116.21 121.46 -116.89 121.46 C-117.06 122.3 -117.06 122.3 -117.23 123.16 C-119.19 129.92 -123.93 135.72 -128.58 140.87 C-130.49 143.17 -131.63 145.76 -132.89 148.46 C-133.85 149.82 -134.85 151.16 -135.89 152.46 C-136.58 153.36 -137.26 154.27 -137.96 155.21 C-138.6 155.95 -139.24 156.69 -139.89 157.46 C-140.55 157.46 -141.21 157.46 -141.89 157.46 C-143.04 159.38 -143.04 159.38 -142.89 161.46 C-143.53 163.13 -144.2 164.8 -144.89 166.46 C-145.88 166.46 -146.87 166.46 -147.89 166.46 C-147.89 167.12 -147.89 167.78 -147.89 168.46 C-148.48 171.78 -149.74 174 -151.64 176.77 C-152.18 177.55 -152.72 178.34 -153.27 179.15 C-154.7 181.18 -156.13 183.2 -157.58 185.21 C-159.51 187.91 -161.24 190.58 -162.89 193.46 C-163.22 194.03 -163.55 194.59 -163.89 195.18 C-165.35 197.7 -166.77 200.18 -167.96 202.83 C-168.89 204.46 -168.89 204.46 -171.89 205.46 C-173.02 207.8 -173.02 207.8 -173.89 210.46 C-174.55 211.8 -175.21 213.13 -175.89 214.46 C-176.55 214.46 -177.21 214.46 -177.89 214.46 C-178.01 215.46 -178.01 215.46 -178.12 216.49 C-179.15 220.44 -181.07 223.5 -183.21 226.96 C-183.6 227.61 -183.99 228.26 -184.39 228.93 C-186.66 232.65 -188.97 236.21 -191.89 239.46 C-192.55 239.46 -193.21 239.46 -193.89 239.46 C-193.56 240.45 -193.23 241.44 -192.89 242.46 C-193.55 242.89 -194.21 243.32 -194.89 243.77 C-195.55 244.33 -196.21 244.88 -196.89 245.46 C-196.89 246.45 -196.89 247.44 -196.89 248.46 C-198.26 252.07 -199.56 254.97 -201.75 258.17 C-204.62 262.57 -206.77 267.22 -208.98 271.97 C-209.88 273.84 -210.88 275.65 -211.89 277.46 C-212.88 277.79 -213.87 278.12 -214.89 278.46 C-215.02 279.22 -215.14 279.98 -215.27 280.77 C-215.89 283.46 -215.89 283.46 -217.89 286.46 C-217.89 285.8 -217.89 285.14 -217.89 284.46 C-218.88 284.46 -219.87 284.46 -220.89 284.46 C-220.23 285.45 -219.57 286.44 -218.89 287.46 C-217.92 292.68 -220.87 296.69 -223.33 301.08 C-227.49 308.71 -231.33 316.42 -234.94 324.31 C-237.31 329.44 -239.78 333.53 -243.89 337.46 C-243.56 338.12 -243.23 338.78 -242.89 339.46 C-243.84 341.37 -244.79 343.29 -245.79 345.18 C-246.88 347.43 -247.66 349.63 -248.39 352.02 C-249.48 355.47 -250.91 358.35 -252.79 361.46 C-255.74 366.81 -257.8 372.67 -260.03 378.35 C-260.38 379.23 -260.72 380.11 -261.08 381.02 C-261.38 381.8 -261.69 382.59 -262 383.4 C-262.89 385.46 -262.89 385.46 -264.89 388.46 C-265.97 390.41 -265.97 390.41 -266.33 392.52 C-266.52 393.16 -266.7 393.8 -266.89 394.46 C-267.55 394.79 -268.21 395.12 -268.89 395.46 C-268.83 396.18 -268.77 396.9 -268.71 397.64 C-268.89 400.46 -268.89 400.46 -270.22 402.65 C-272.22 406 -273.52 409.49 -274.83 413.14 C-275.36 414.58 -275.89 416.01 -276.41 417.45 C-276.67 418.14 -276.92 418.83 -277.18 419.54 C-278.99 424.42 -280.98 429.23 -282.96 434.04 C-284.9 438.8 -286.57 443.48 -287.89 448.46 C-288.89 451.46 -288.89 451.46 -290.89 454.46 C-291.33 455.8 -291.72 457.16 -292.08 458.52 C-293.24 462.57 -294.66 466.43 -296.25 470.33 C-300.11 479.81 -302.99 489.4 -305.58 499.3 C-305.86 500.33 -306.13 501.36 -306.41 502.43 C-306.65 503.35 -306.89 504.27 -307.14 505.22 C-307.89 507.46 -307.89 507.46 -309.89 509.46 C-312.94 509.22 -314.37 509.07 -316.89 507.46 C-318.5 504.69 -319.54 501.91 -320.63 498.91 C-322.35 494.2 -324.57 489.77 -326.76 485.27 C-327.89 482.46 -327.89 482.46 -327.89 478.46 C-328.55 478.46 -329.21 478.46 -329.89 478.46 C-330.37 477.48 -330.84 476.51 -331.32 475.5 C-331.95 474.21 -332.58 472.93 -333.21 471.64 C-333.52 471 -333.82 470.36 -334.14 469.7 C-335.74 466.45 -337.25 463.92 -339.89 461.46 C-340.22 460.47 -340.55 459.48 -340.89 458.46 C-341.55 458.13 -342.21 457.8 -342.89 457.46 C-343.04 456.71 -343.18 455.97 -343.33 455.2 C-343.98 452.03 -345.15 450.19 -346.96 447.52 C-350.58 442.01 -353.86 436.36 -357.1 430.62 C-359.33 426.69 -361.55 422.83 -364.27 419.21 C-366.14 416.63 -367.71 414.02 -369.21 411.21 C-371.73 406.53 -374.8 402.37 -377.96 398.11 C-380.91 394.07 -383.78 389.92 -385.84 385.36 C-386.88 383.13 -386.88 383.13 -389.89 381.46 C-390.83 379.81 -391.77 378.17 -392.67 376.5 C-394.53 373.4 -396.8 370.66 -399.05 367.83 C-401.49 364.69 -403.73 361.42 -405.99 358.14 C-408.87 354.08 -411.92 350.15 -414.98 346.22 C-416.89 343.46 -416.89 343.46 -417.97 340.66 C-418.27 339.94 -418.58 339.21 -418.89 338.46 C-419.88 338.13 -420.87 337.8 -421.89 337.46 C-423.27 335.94 -423.27 335.94 -424.68 333.99 C-425.21 333.28 -425.73 332.57 -426.27 331.83 C-426.83 331.07 -427.38 330.31 -427.96 329.52 C-432.53 323.37 -437.17 317.89 -442.73 312.61 C-445.41 309.94 -447.59 307.06 -449.74 303.95 C-450.84 302.3 -450.84 302.3 -452.89 301.46 C-452.89 300.8 -452.89 300.14 -452.89 299.46 C-453.55 299.46 -454.21 299.46 -454.89 299.46 C-454.89 298.8 -454.89 298.14 -454.89 297.46 C-455.88 297.13 -456.87 296.8 -457.89 296.46 C-461.89 292 -461.89 292 -461.89 289.46 C-462.55 289.46 -463.21 289.46 -463.89 289.46 C-463.89 288.8 -463.89 288.14 -463.89 287.46 C-464.55 287.46 -465.21 287.46 -465.89 287.46 C-465.89 286.8 -465.89 286.14 -465.89 285.46 C-466.55 285.46 -467.21 285.46 -467.89 285.46 C-467.89 284.8 -467.89 284.14 -467.89 283.46 C-468.55 283.46 -469.21 283.46 -469.89 283.46 C-469.89 282.8 -469.89 282.14 -469.89 281.46 C-470.47 281.21 -471.05 280.95 -471.65 280.7 C-474.18 279.3 -475.83 277.72 -477.83 275.64 C-478.53 274.93 -479.23 274.21 -479.95 273.47 C-480.59 272.81 -481.23 272.14 -481.89 271.46 C-484.81 268.47 -487.79 265.67 -490.96 262.96 C-493.99 260.33 -496.46 257.65 -498.89 254.46 C-501.12 252.17 -503.38 249.93 -505.73 247.76 C-511.75 242.07 -511.75 242.07 -511.89 237.46 C-506.15 237.94 -501.96 239.73 -496.89 242.46 C-494.46 243.72 -492.02 244.97 -489.58 246.21 C-488.97 246.52 -488.36 246.84 -487.73 247.17 C-484.91 248.61 -483.11 249.46 -479.89 249.46 C-478.56 250.79 -477.23 252.12 -475.89 253.46 C-473.18 254.99 -473.18 254.99 -470.27 256.21 C-469.31 256.63 -468.35 257.06 -467.36 257.5 C-465.02 258.58 -465.02 258.58 -462.89 258.46 C-462.89 259.12 -462.89 259.78 -462.89 260.46 C-462.17 260.73 -461.44 261 -460.69 261.28 C-458 262.41 -455.68 263.72 -453.21 265.27 C-448.24 268.31 -443.14 270.94 -437.89 273.46 C-437.89 274.12 -437.89 274.78 -437.89 275.46 C-436.87 275.83 -436.87 275.83 -435.83 276.21 C-432.36 277.68 -429.18 279.51 -425.96 281.46 C-424.98 282.05 -424.98 282.05 -423.98 282.65 C-414.74 288.29 -406.1 294.76 -397.48 301.3 C-395.78 302.57 -395.78 302.57 -393.39 303.96 C-391.03 305.38 -388.82 306.9 -386.58 308.52 C-385.88 309.03 -385.19 309.53 -384.47 310.05 C-383.95 310.52 -383.43 310.98 -382.89 311.46 C-382.89 312.12 -382.89 312.78 -382.89 313.46 C-382.03 313.48 -381.16 313.5 -380.27 313.52 C-376.13 314.67 -374.96 316.3 -372.48 319.67 C-370.54 321.86 -368.42 322.98 -365.89 324.46 C-364.36 325.73 -362.86 327.05 -361.39 328.39 C-358.92 330.65 -356.48 332.78 -353.83 334.83 C-353.19 335.37 -352.55 335.9 -351.89 336.46 C-351.89 337.12 -351.89 337.78 -351.89 338.46 C-351.21 338.66 -350.53 338.87 -349.83 339.08 C-343.16 342.21 -338.45 347.81 -333.89 353.46 C-328.26 352.13 -325.84 348.09 -322.89 343.46 C-321.84 341.47 -320.86 339.45 -319.9 337.41 C-318.83 335.33 -317.59 333.53 -316.21 331.64 C-313.79 328.65 -313.79 328.65 -312.89 325.46 C-312.23 325.13 -311.57 324.8 -310.89 324.46 C-310.61 323.65 -310.32 322.85 -310.02 322.02 C-308.89 319.46 -308.89 319.46 -306.83 318.46 C-306.19 318.13 -305.55 317.8 -304.89 317.46 C-304.08 314.9 -304.08 314.9 -303.89 312.46 C-302.9 312.13 -301.91 311.8 -300.89 311.46 C-300.52 310.13 -300.2 308.8 -299.89 307.46 C-298.59 305.49 -298.59 305.49 -297.02 303.52 C-295.36 301.38 -293.83 299.36 -292.46 297.02 C-290.43 293.69 -288.01 290.72 -285.6 287.66 C-283.55 285.01 -281.71 282.27 -279.89 279.46 C-277.74 276.12 -275.69 273.25 -272.89 270.46 C-272.44 269.67 -271.99 268.89 -271.52 268.08 C-269.66 265.08 -267.39 262.95 -264.89 260.46 C-263.88 258.8 -262.88 257.13 -261.89 255.46 C-260.73 253.84 -259.54 252.23 -258.33 250.64 C-257.73 249.85 -257.13 249.06 -256.52 248.25 C-255.98 247.66 -255.45 247.07 -254.89 246.46 C-254.23 246.46 -253.57 246.46 -252.89 246.46 C-252.79 245.69 -252.69 244.93 -252.58 244.14 C-251.85 241.27 -251.22 240.23 -248.89 238.46 C-248.23 238.46 -247.57 238.46 -246.89 238.46 C-246.85 237.74 -246.81 237.01 -246.77 236.27 C-245.55 232.36 -243.02 231.01 -239.89 228.46 C-239.17 226.81 -238.5 225.15 -237.89 223.46 C-235.89 221.14 -235.89 221.14 -233.89 219.46 C-233.23 219.46 -232.57 219.46 -231.89 219.46 C-231.85 218.74 -231.81 218.01 -231.77 217.27 C-230.73 213.93 -229.12 212.79 -226.38 210.71 C-224.3 208.95 -223.2 206.83 -221.89 204.46 C-220.89 203.46 -219.89 202.46 -218.89 201.46 C-218.21 200.31 -218.21 200.31 -217.52 199.14 C-215.6 195.97 -213.32 193.24 -210.89 190.46 C-210.32 189.79 -209.75 189.12 -209.16 188.44 C-206.72 185.63 -204.31 182.86 -201.64 180.27 C-199.8 178.51 -199.8 178.51 -198.58 176.21 C-196.14 172.22 -193.01 168.93 -189.89 165.46 C-188.75 164.12 -187.6 162.79 -186.46 161.46 C-183.38 157.92 -180.09 154.65 -176.69 151.41 C-174.82 149.53 -174.82 149.53 -173.66 147.22 C-170.48 142.24 -165.93 138.42 -161.7 134.34 C-161 133.66 -160.3 132.97 -159.58 132.27 C-158.63 131.35 -158.63 131.35 -157.66 130.41 C-155.82 128.51 -155.82 128.51 -154.59 126.15 C-152.25 122.44 -149.27 119.63 -146.14 116.58 C-145.49 115.94 -144.84 115.29 -144.16 114.62 C-141.37 111.87 -138.57 109.12 -135.77 106.38 C-133.73 104.37 -131.69 102.35 -129.64 100.33 C-129.01 99.72 -128.38 99.1 -127.73 98.47 C-126.85 97.59 -126.85 97.59 -125.94 96.7 C-125.42 96.19 -124.91 95.69 -124.37 95.16 C-122.78 93.43 -122.78 93.43 -121.48 91.05 C-119.75 88.22 -117.83 86.14 -115.5 83.79 C-114.62 82.9 -113.73 82 -112.82 81.08 C-111.86 80.12 -110.9 79.16 -109.93 78.2 C-108.94 77.2 -107.95 76.2 -106.96 75.2 C-104.88 73.12 -102.8 71.04 -100.72 68.96 C-98.05 66.31 -95.4 63.64 -92.75 60.96 C-90.71 58.9 -88.65 56.85 -86.6 54.8 C-85.62 53.82 -84.64 52.84 -83.67 51.85 C-82.3 50.47 -80.92 49.1 -79.55 47.74 C-78.38 46.57 -78.38 46.57 -77.18 45.37 C-74.83 43.4 -72.74 42.54 -69.89 41.46 C-69.27 39.5 -69.27 39.5 -68.89 37.46 C-67.35 36.06 -67.35 36.06 -65.38 34.75 C-60.42 31.24 -56.36 27.07 -52.14 22.71 C-50.68 21.19 -49.2 19.67 -47.72 18.16 C-47.08 17.5 -46.44 16.83 -45.78 16.15 C-43.89 14.46 -42.17 13.54 -39.89 12.46 C-36.49 9.38 -34.21 6.38 -31.89 2.46 C-24.15 -7.68 -9.87 -5.44 0 0 Z M-19.89 1.46 C-19.89 1.79 -19.89 2.12 -19.89 2.46 C-16.26 2.46 -12.63 2.46 -8.89 2.46 C-8.89 2.13 -8.89 1.8 -8.89 1.46 C-12.52 1.46 -16.15 1.46 -19.89 1.46 Z M-21.89 5.46 C-23.22 6.14 -24.55 6.81 -25.89 7.46 C-25.23 8.12 -24.57 8.78 -23.89 9.46 C-24.39 9.87 -24.88 10.28 -25.39 10.71 C-28.78 13.76 -31.29 16.06 -31.96 20.71 C-32.23 24.54 -32.23 24.54 -29.89 27.46 C-29.23 27.46 -28.57 27.46 -27.89 27.46 C-27.87 26.88 -27.84 26.3 -27.82 25.7 C-27.42 20.26 -26.62 16.69 -22.89 12.46 C-19.71 10.64 -19.71 10.64 -16.89 9.46 C-16.56 9.13 -16.23 8.8 -15.89 8.46 C-11.94 7.33 -8.9 7.62 -4.89 8.46 C-5.65 5.18 -5.65 5.18 -8.89 3.46 C-11.31 3.14 -11.31 3.14 -13.89 3.21 C-15.19 3.2 -15.19 3.2 -16.52 3.19 C-19.16 3.3 -19.16 3.3 -21.89 5.46 Z M-1.89 12.46 C-4.22 16.09 -4.06 19.23 -3.89 23.46 C-2.9 23.13 -1.91 22.8 -0.89 22.46 C0.58 19.5 0.17 16.71 0.11 13.46 C-0.55 13.13 -1.21 12.8 -1.89 12.46 Z M-16.89 16.46 C-19.23 19.24 -19.23 19.24 -18.52 22.14 C-18.31 22.91 -18.11 23.67 -17.89 24.46 C-16.9 24.13 -15.91 23.8 -14.89 23.46 C-14.89 22.8 -14.89 22.14 -14.89 21.46 C-14.23 21.46 -13.57 21.46 -12.89 21.46 C-12.89 19.81 -12.89 18.16 -12.89 16.46 C-14.21 16.46 -15.53 16.46 -16.89 16.46 Z M2.11 25.46 C3.11 27.46 3.11 27.46 3.11 27.46 Z M-43.89 28.46 C-42.89 30.46 -42.89 30.46 -42.89 30.46 Z M-20.89 40.46 C-20.89 40.79 -20.89 41.12 -20.89 41.46 C-17.59 41.79 -14.29 42.12 -10.89 42.46 C-10.89 41.8 -10.89 41.14 -10.89 40.46 C-14.19 40.46 -17.49 40.46 -20.89 40.46 Z M-68.89 57.46 C-67.89 59.46 -67.89 59.46 -67.89 59.46 Z M-78.89 67.46 C-77.89 69.46 -77.89 69.46 -77.89 69.46 Z M-76.89 67.46 C-75.89 69.46 -75.89 69.46 -75.89 69.46 Z M-91.89 84.46 C-91.56 85.12 -91.23 85.78 -90.89 86.46 C-90.56 85.8 -90.23 85.14 -89.89 84.46 C-90.55 84.46 -91.21 84.46 -91.89 84.46 Z M-95.89 91.46 C-96.22 92.45 -96.55 93.44 -96.89 94.46 C-96.23 94.46 -95.57 94.46 -94.89 94.46 C-95.22 93.47 -95.55 92.48 -95.89 91.46 Z M-104.89 100.46 C-104.89 101.45 -104.89 102.44 -104.89 103.46 C-104.23 103.13 -103.57 102.8 -102.89 102.46 C-103.55 101.8 -104.21 101.14 -104.89 100.46 Z M-107.89 104.46 C-107.56 105.12 -107.23 105.78 -106.89 106.46 C-106.23 105.8 -105.57 105.14 -104.89 104.46 C-105.88 104.46 -106.87 104.46 -107.89 104.46 Z M-121.89 125.46 C-121.23 126.12 -120.57 126.78 -119.89 127.46 C-119.89 126.8 -119.89 126.14 -119.89 125.46 C-120.55 125.46 -121.21 125.46 -121.89 125.46 Z M-123.89 126.46 C-122.89 128.46 -122.89 128.46 -122.89 128.46 Z M-122.89 128.46 C-121.89 130.46 -121.89 130.46 -121.89 130.46 Z M-124.89 129.46 C-123.89 131.46 -123.89 131.46 -123.89 131.46 Z M-146.89 162.46 C-146.89 163.45 -146.89 164.44 -146.89 165.46 C-146.23 164.8 -145.57 164.14 -144.89 163.46 C-145.55 163.13 -146.21 162.8 -146.89 162.46 Z M-151.89 168.46 C-151.56 169.45 -151.23 170.44 -150.89 171.46 C-150.23 171.13 -149.57 170.8 -148.89 170.46 C-148.89 169.8 -148.89 169.14 -148.89 168.46 C-149.88 168.46 -150.87 168.46 -151.89 168.46 Z M-153.89 174.46 C-152.89 176.46 -152.89 176.46 -152.89 176.46 Z M-157.89 180.46 C-156.89 182.46 -156.89 182.46 -156.89 182.46 Z M-171.89 201.46 C-171.89 202.45 -171.89 203.44 -171.89 204.46 C-171.23 204.13 -170.57 203.8 -169.89 203.46 C-169.89 202.8 -169.89 202.14 -169.89 201.46 C-170.55 201.46 -171.21 201.46 -171.89 201.46 Z M-214.89 274.46 C-213.89 276.46 -213.89 276.46 -213.89 276.46 Z M-220.89 287.46 C-219.89 290.46 -219.89 290.46 -219.89 290.46 Z M-243.89 332.46 C-242.89 334.46 -242.89 334.46 -242.89 334.46 Z M-245.89 339.46 C-244.89 342.46 -244.89 342.46 -244.89 342.46 Z M-267.89 385.46 C-266.89 387.46 -266.89 387.46 -266.89 387.46 Z M-270.89 395.46 C-269.89 397.46 -269.89 397.46 -269.89 397.46 Z M-274.89 405.46 C-273.89 408.46 -273.89 408.46 -273.89 408.46 Z M-285.89 435.46 C-284.89 437.46 -284.89 437.46 -284.89 437.46 Z M-292.89 450.46 C-292.23 451.12 -291.57 451.78 -290.89 452.46 C-290.89 451.8 -290.89 451.14 -290.89 450.46 C-291.55 450.46 -292.21 450.46 -292.89 450.46 Z M-293.89 454.46 C-294.22 455.78 -294.55 457.1 -294.89 458.46 C-294.23 458.46 -293.57 458.46 -292.89 458.46 C-293.22 457.14 -293.55 455.82 -293.89 454.46 Z M-295.89 459.46 C-296.22 460.78 -296.55 462.1 -296.89 463.46 C-295.9 463.95 -295.9 463.95 -294.89 464.46 C-294.89 462.81 -294.89 461.16 -294.89 459.46 C-295.22 459.46 -295.55 459.46 -295.89 459.46 Z M-301.89 477.46 C-300.89 479.46 -300.89 479.46 -300.89 479.46 Z M-303.89 483.46 C-302.89 485.46 -302.89 485.46 -302.89 485.46 Z M-305.89 489.46 C-304.89 492.46 -304.89 492.46 -304.89 492.46 Z M-307.89 496.46 C-306.89 499.46 -306.89 499.46 -306.89 499.46 Z M-309.89 502.46 C-308.89 506.46 -308.89 506.46 -308.89 506.46 Z " fill="#2ED2DC" transform="translate(907.89453125,133.54296875)"/>
<path d="M0 0 C1.55 2.28 2.77 4.54 4 7 C4.66 7.33 5.32 7.66 6 8 C9 14.51 9.02 21.8 6.62 28.5 C5 32 5 32 3 34 C3 33.01 3 32.02 3 31 C2.01 31.5 2.01 31.5 1 32 C1.22 32.6 1.43 33.19 1.66 33.81 C1.77 34.53 1.88 35.25 2 36 C-1.58 40.39 -5.32 43.83 -11 45 C-18.81 45.78 -25.98 46.35 -32.42 41.36 C-33.2 40.68 -33.2 40.68 -34 40 C-35.42 39.04 -35.42 39.04 -36.88 38.06 C-39.44 35.57 -40.14 33.43 -41 30 C-41.66 30 -42.32 30 -43 30 C-44.34 25.16 -45.25 21.07 -45 16 C-44.34 16 -43.68 16 -43 16 C-43 15.34 -43 14.68 -43 14 C-43.66 13.67 -44.32 13.34 -45 13 C-42.19 5.92 -42.19 5.92 -39 3 C-38.71 2.3 -38.42 1.6 -38.12 0.88 C-37 -1 -37 -1 -34.38 -1.75 C-33.2 -1.87 -33.2 -1.87 -32 -2 C-32 -2.66 -32 -3.32 -32 -4 C-21.9 -10.31 -8.85 -6.56 0 0 Z M4 9 C5 12 5 12 5 12 Z M6 15 C5.67 17.97 5.34 20.94 5 24 C5.66 24 6.32 24 7 24 C7 21.03 7 18.06 7 15 C6.67 15 6.34 15 6 15 Z M4 25 C4 26.65 4 28.3 4 30 C4.33 30 4.66 30 5 30 C5 28.35 5 26.7 5 25 C4.67 25 4.34 25 4 25 Z M2 28 C3 30 3 30 3 30 Z M-1 34 C-1.33 34.66 -1.66 35.32 -2 36 C-1.34 36 -0.68 36 0 36 C-0.33 35.34 -0.66 34.68 -1 34 Z M-5 37 C-5 37.66 -5 38.32 -5 39 C-4.34 38.67 -3.68 38.34 -3 38 C-3.66 37.67 -4.32 37.34 -5 37 Z M-13 42 C-15.91 41.98 -15.91 41.98 -19.12 42.38 C-20.22 42.49 -21.32 42.6 -22.45 42.71 C-23.29 42.81 -24.13 42.9 -25 43 C-25 43.33 -25 43.66 -25 44 C-20.38 44 -15.76 44 -11 44 C-11.66 43.34 -12.32 42.68 -13 42 Z " fill="#F0B730" transform="translate(141,236)"/>
<path d="M0 0 C2.11 0.42 4.21 0.86 6.31 1.31 C7.48 1.56 8.66 1.8 9.86 2.05 C12.96 2.99 13.99 3.59 16 6 C17.21 6.68 17.21 6.68 18.44 7.38 C22.97 10.25 25.37 13.96 27 19 C27.81 27.06 28.26 35.19 23.56 42.17 C19.76 46.63 15.03 51.46 8.96 52.27 C6.64 52.3 4.32 52.32 2 52.31 C0.79 52.34 0.79 52.34 -0.45 52.36 C-4.97 52.37 -7.59 52.24 -11 49 C-12 48.53 -12 48.53 -13.02 48.05 C-15.42 46.78 -16.84 45.28 -18.62 43.25 C-19.22 42.6 -19.81 41.94 -20.41 41.27 C-25.22 34.4 -24.82 26.03 -24 18 C-21.53 10.41 -16.62 6.31 -10.06 2.12 C-6.31 0.75 -3.86 1.15 0 2 C0 1.34 0 0.68 0 0 Z M23 15 C24 17 24 17 24 17 Z M25 19 C25 23.95 25 28.9 25 34 C25.33 34 25.66 34 26 34 C26 29.05 26 24.1 26 19 C25.67 19 25.34 19 25 19 Z M23 36 C23.33 36.66 23.66 37.32 24 38 C24.33 37.34 24.66 36.68 25 36 C24.34 36 23.68 36 23 36 Z M20 40 C20.66 40.66 21.32 41.32 22 42 C22 41.34 22 40.68 22 40 C21.34 40 20.68 40 20 40 Z M14 47 C14.33 47.66 14.66 48.32 15 49 C15.33 48.34 15.66 47.68 16 47 C15.34 47 14.68 47 14 47 Z " fill="#EFB62D" transform="translate(1054,26)"/>
<path d="M0 0 C8.66 -0.72 16.3 1.34 23.25 6.75 C27.47 10.83 29.91 13.79 30.16 19.82 C30.14 21.26 30.1 22.69 30.06 24.12 C29.71 29.21 29.71 29.21 31 34 C29.86 36.95 28.33 38.88 26 41 C26.99 41.5 26.99 41.5 28 42 C27.34 42 26.68 42 26 42 C25.73 42.6 25.46 43.2 25.19 43.81 C23.96 46.07 23.06 47.47 21 49 C18.31 49.19 18.31 49.19 16 49 C16 49.66 16 50.32 16 51 C14.95 51.14 13.9 51.29 12.81 51.44 C10.57 51.77 8.34 52.14 6.12 52.62 C5.42 52.75 4.72 52.87 4 53 C3.51 52.5 3.51 52.5 3 52 C0.67 51.63 -1.66 51.3 -4 51 C-4 50.34 -4 49.68 -4 49 C-4.89 48.96 -5.77 48.92 -6.69 48.88 C-12.13 47.44 -14.4 43.13 -17.19 38.56 C-20.45 32.15 -22.1 26.65 -20 19.69 C-19.67 18.8 -19.34 17.91 -19 17 C-18.34 17 -17.68 17 -17 17 C-16.88 16.44 -16.75 15.89 -16.62 15.31 C-15.63 11.63 -14.72 8.72 -12 6 C-10.68 6 -9.36 6 -8 6 C-7.34 4.68 -6.68 3.36 -6 2 C-4.02 2 -2.04 2 0 2 C0 1.34 0 0.68 0 0 Z M28 16 C29 20 29 20 29 20 Z M26 36 C27 38 27 38 27 38 Z M-11 44 C-11 44.66 -11 45.32 -11 46 C-10.34 45.67 -9.68 45.34 -9 45 C-9.66 44.67 -10.32 44.34 -11 44 Z M20 44 C20 44.66 20 45.32 20 46 C20.99 45.67 21.98 45.34 23 45 C22.01 44.67 21.02 44.34 20 44 Z " fill="#E24917" transform="translate(1078,664)"/>
<path d="M0 0 C0 0.66 0 1.32 0 2 C0.58 2.25 1.16 2.5 1.75 2.75 C4.35 4.19 6.08 5.74 8 8 C8 8.99 8 9.98 8 11 C8.66 11.33 9.32 11.66 10 12 C9.67 12.33 9.34 12.66 9 13 C9.49 13.35 9.97 13.69 10.47 14.05 C13.89 18.41 12.5 25.7 12 31 C10.46 36.57 7.73 39.68 3 43 C2.5 43.99 2.5 43.99 2 45 C-6.65 49.62 -13.61 49.73 -23.02 47.63 C-25 47 -25 47 -28 45 C-28 44.34 -28 43.68 -28 43 C-28.66 43 -29.32 43 -30 43 C-31.51 41.54 -31.51 41.54 -33.12 39.62 C-33.66 39 -34.2 38.37 -34.76 37.73 C-36 36 -36 36 -36 34 C-36.66 33.67 -37.32 33.34 -38 33 C-39.21 29.36 -39.26 25.98 -39.31 22.19 C-39.36 21.14 -39.36 21.14 -39.4 20.07 C-39.46 14.89 -38.27 12.19 -35 8 C-34.34 6.89 -33.68 5.77 -33 4.62 C-32.34 3.76 -31.68 2.89 -31 2 C-29.68 2 -28.36 2 -27 2 C-27 1.34 -27 0.68 -27 0 C-19.2 -4.75 -8.11 -3.77 0 0 Z M10 17 C11 19 11 19 11 19 Z M10 20 C10 23.3 10 26.6 10 30 C10.33 30 10.66 30 11 30 C11 26.7 11 23.4 11 20 C10.67 20 10.34 20 10 20 Z M6 36 C7 38 7 38 7 38 Z " fill="#4E8D9D" transform="translate(158,568)"/>
<path d="M0 0 C8.05 -0.49 13.94 0.01 21 4 C22.01 4.54 23.02 5.07 24.06 5.62 C25.02 6.31 25.02 6.31 26 7 C26 7.66 26 8.32 26 9 C26.66 9 27.32 9 28 9 C29.78 11.64 30.99 13.97 32 17 C32.37 17.82 32.74 18.65 33.12 19.5 C34.82 26.28 33.88 33.75 30.38 39.81 C26.37 45.19 22.75 48.94 16 50 C12.45 50.08 8.92 49.86 5.38 49.69 C4.42 49.65 3.47 49.62 2.48 49.58 C1.11 49.52 1.11 49.52 -0.29 49.45 C-1.12 49.41 -1.95 49.37 -2.81 49.33 C-5 49 -5 49 -8 47 C-9.19 44.88 -9.19 44.88 -10 43 C-10.66 43 -11.32 43 -12 43 C-12.33 41.68 -12.66 40.36 -13 39 C-13.66 39 -14.32 39 -15 39 C-15.48 37.58 -15.96 36.17 -16.44 34.75 C-16.7 33.96 -16.97 33.17 -17.25 32.36 C-18.51 28.42 -19.12 25.16 -19 21 C-18.34 21 -17.68 21 -17 21 C-17 19.02 -17 17.04 -17 15 C-16.34 15 -15.68 15 -15 15 C-14.96 14.3 -14.92 13.6 -14.88 12.88 C-13.64 8.82 -11.27 6.61 -8 4 C-4.98 2.45 -3.4 2 0 2 C0 1.34 0 0.68 0 0 Z M29 14 C30 16 30 16 30 16 Z M32 24 C33 28 33 28 33 28 Z " fill="#4B8999" transform="translate(1166,313)"/>
<path d="M0 0 C6.7 4.1 9.19 7.77 12 15 C12.33 15 12.66 15 13 15 C14.08 22.15 14.97 29.55 11 36 C10.5 36.99 10.5 36.99 10 38 C9.01 38.33 8.02 38.66 7 39 C6.43 39.99 5.86 40.99 5.27 42.01 C3 45 3 45 -0.34 45.76 C-2.29 45.76 -2.29 45.76 -4.29 45.76 C-4.98 45.77 -5.68 45.77 -6.4 45.77 C-7.87 45.77 -9.34 45.76 -10.81 45.73 C-13.06 45.69 -15.31 45.71 -17.56 45.73 C-18.99 45.72 -20.42 45.71 -21.85 45.7 C-23.8 45.68 -23.8 45.68 -25.79 45.66 C-29 45 -29 45 -30.86 42.59 C-31.24 41.73 -31.61 40.88 -32 40 C-32.43 39.31 -32.87 38.61 -33.32 37.89 C-36.61 32.4 -38.11 27.33 -39 21 C-38.34 21 -37.68 21 -37 21 C-37.33 20.01 -37.66 19.02 -38 18 C-36.32 10.93 -32.91 5.24 -27 1 C-17.87 -4.02 -9.49 -4.44 0 0 Z M9 11 C10 13 10 13 10 13 Z " fill="#E54816" transform="translate(215,675)"/>
<path d="M0 0 C3 2.08 4.59 4.15 6.11 7.46 C6.36 10.33 6.36 10.33 6.11 12.46 C6.77 12.46 7.43 12.46 8.11 12.46 C8.44 18.65 7.69 22.8 5.11 28.46 C4.12 28.95 4.12 28.95 3.11 29.46 C2.78 30.45 2.45 31.44 2.11 32.46 C1.45 32.46 0.79 32.46 0.11 32.46 C0.11 31.8 0.11 31.14 0.11 30.46 C-0.88 30.46 -1.87 30.46 -2.89 30.46 C-2.89 31.12 -2.89 31.78 -2.89 32.46 C-3.55 32.46 -4.21 32.46 -4.89 32.46 C-4.89 33.12 -4.89 33.78 -4.89 34.46 C-5.51 34.38 -6.13 34.31 -6.77 34.24 C-12.52 33.61 -18.11 33.36 -23.89 33.46 C-23.56 34.12 -23.23 34.78 -22.89 35.46 C-17.03 36.67 -10.86 36.57 -4.89 36.46 C-4.4 38.44 -4.4 38.44 -3.89 40.46 C-4.22 39.8 -4.55 39.14 -4.89 38.46 C-5.88 38.46 -6.87 38.46 -7.89 38.46 C-7.23 39.78 -6.57 41.1 -5.89 42.46 C-15.17 43.88 -24.14 44.54 -32.16 39.06 C-35.06 36.38 -36.65 33.17 -37.89 29.46 C-37.89 28.8 -37.89 28.14 -37.89 27.46 C-39.54 28.45 -41.19 29.44 -42.89 30.46 C-43.39 28.97 -43.39 28.97 -43.89 27.46 C-42.72 26.44 -42.72 26.44 -41.52 25.39 C-38.44 21.94 -37.85 19.89 -36.89 15.46 C-38.54 15.79 -40.19 16.12 -41.89 16.46 C-39.91 12.89 -37.76 10.32 -34.89 7.46 C-34.4 6.63 -33.9 5.81 -33.39 4.96 C-30.33 -0.16 -27.1 -2.39 -21.45 -4.06 C-13.71 -5.52 -6.81 -3.75 0 0 Z M-19.89 1.46 C-19.89 1.79 -19.89 2.12 -19.89 2.46 C-16.26 2.46 -12.63 2.46 -8.89 2.46 C-8.89 2.13 -8.89 1.8 -8.89 1.46 C-12.52 1.46 -16.15 1.46 -19.89 1.46 Z M-21.89 5.46 C-23.22 6.14 -24.55 6.81 -25.89 7.46 C-25.23 8.12 -24.57 8.78 -23.89 9.46 C-24.39 9.87 -24.88 10.28 -25.39 10.71 C-28.78 13.76 -31.29 16.06 -31.96 20.71 C-32.23 24.54 -32.23 24.54 -29.89 27.46 C-29.23 27.46 -28.57 27.46 -27.89 27.46 C-27.87 26.88 -27.84 26.3 -27.82 25.7 C-27.42 20.26 -26.62 16.69 -22.89 12.46 C-19.71 10.64 -19.71 10.64 -16.89 9.46 C-16.56 9.13 -16.23 8.8 -15.89 8.46 C-11.94 7.33 -8.9 7.62 -4.89 8.46 C-5.65 5.18 -5.65 5.18 -8.89 3.46 C-11.31 3.14 -11.31 3.14 -13.89 3.21 C-15.19 3.2 -15.19 3.2 -16.52 3.19 C-19.16 3.3 -19.16 3.3 -21.89 5.46 Z M-1.89 12.46 C-4.22 16.09 -4.06 19.23 -3.89 23.46 C-2.9 23.13 -1.91 22.8 -0.89 22.46 C0.58 19.5 0.17 16.71 0.11 13.46 C-0.55 13.13 -1.21 12.8 -1.89 12.46 Z M-16.89 16.46 C-19.23 19.24 -19.23 19.24 -18.52 22.14 C-18.31 22.91 -18.11 23.67 -17.89 24.46 C-16.9 24.13 -15.91 23.8 -14.89 23.46 C-14.89 22.8 -14.89 22.14 -14.89 21.46 C-14.23 21.46 -13.57 21.46 -12.89 21.46 C-12.89 19.81 -12.89 18.16 -12.89 16.46 C-14.21 16.46 -15.53 16.46 -16.89 16.46 Z M2.11 25.46 C3.11 27.46 3.11 27.46 3.11 27.46 Z M-20.89 40.46 C-20.89 40.79 -20.89 41.12 -20.89 41.46 C-17.59 41.79 -14.29 42.12 -10.89 42.46 C-10.89 41.8 -10.89 41.14 -10.89 40.46 C-14.19 40.46 -17.49 40.46 -20.89 40.46 Z " fill="#D7EEEA" transform="translate(907.89453125,133.54296875)"/>
<path d="M0 0 C4.64 2.68 7.48 5.4 9.12 10.69 C9.36 16.76 9.46 23.12 5.25 27.88 C0.45 31.17 -3.88 32.71 -9.75 31.88 C-16.08 29.64 -19.78 26.52 -23 20.56 C-24.48 15.26 -24.57 11.45 -22.06 6.62 C-15.59 -1.08 -9.59 -2.88 0 0 Z M-8.75 29.88 C-8.75 30.2 -8.75 30.53 -8.75 30.88 C-7.1 30.88 -5.45 30.88 -3.75 30.88 C-3.75 30.55 -3.75 30.22 -3.75 29.88 C-5.4 29.88 -7.05 29.88 -8.75 29.88 Z " fill="#EDB739" transform="translate(1132.75,149.125)"/>
<path d="M0 0 C4.96 1.02 9.09 2.89 12.58 6.61 C15.63 12.17 15.74 17.36 15.64 23.54 C15.64 24.67 15.71 25.79 15.77 26.92 C15.64 29.54 15.64 29.54 13.64 32.54 C12.98 32.54 12.32 32.54 11.64 32.54 C11.64 33.2 11.64 33.86 11.64 34.54 C6.8 36.96 4.06 38.09 -1.36 36.54 C-1.85 36.05 -1.85 36.05 -2.36 35.54 C-4.86 35.38 -4.86 35.38 -7.36 35.54 C-7.69 35.87 -8.02 36.2 -8.36 36.54 C-11.3 36.79 -11.3 36.79 -14.36 36.54 C-16.89 32.75 -17.18 29.92 -16.36 25.54 C-14.75 21.62 -12.95 17.92 -10.36 14.54 C-8.16 13.73 -8.16 13.73 -6.36 13.54 C-6.36 14.2 -6.36 14.86 -6.36 15.54 C-5.7 14.22 -5.04 12.9 -4.36 11.54 C-2.55 11.52 -0.73 11.5 1.08 11.48 C2.09 11.47 3.1 11.46 4.14 11.45 C6.64 11.54 6.64 11.54 7.64 12.54 C7.27 16.23 6.62 19.61 5.58 23.17 C4.74 26.18 4.45 28.45 4.64 31.54 C7.68 30.87 7.68 30.87 8.84 28.79 C11.47 23.15 12.54 18.6 10.64 12.54 C8.72 9.66 8.72 9.66 6.64 7.54 C6.64 6.88 6.64 6.22 6.64 5.54 C5.65 5.54 4.67 5.54 3.65 5.54 C-0.69 5.54 -5.02 5.54 -9.36 5.54 C-9.69 6.2 -10.02 6.86 -10.36 7.54 C-11.02 7.54 -11.68 7.54 -12.36 7.54 C-12.69 8.53 -13.02 9.52 -13.36 10.54 C-14.02 10.54 -14.68 10.54 -15.36 10.54 C-15.36 11.2 -15.36 11.86 -15.36 12.54 C-16.02 12.54 -16.68 12.54 -17.36 12.54 C-19.74 21.34 -20.68 29.88 -17.36 38.54 C-16.7 38.87 -16.04 39.2 -15.36 39.54 C-15.36 40.2 -15.36 40.86 -15.36 41.54 C-5.37 43.37 -5.37 43.37 4.64 42.54 C5.3 42.87 5.96 43.2 6.64 43.54 C6.31 44.53 5.98 45.52 5.64 46.54 C1.14 48.63 -3.46 49.39 -8.36 48.54 C-15.21 46 -20.28 41.55 -24.36 35.54 C-26.88 29.88 -26.77 24.5 -25.36 18.54 C-23.92 15.07 -22.24 11.8 -20.36 8.54 C-19.7 8.54 -19.04 8.54 -18.36 8.54 C-18.15 7.94 -17.95 7.35 -17.73 6.73 C-15.84 3.72 -13.56 2.98 -10.36 1.54 C-6.48 -1.04 -4.48 -0.56 0 0 Z M-21.36 13.54 C-21.69 16.18 -22.02 18.82 -22.36 21.54 C-21.7 21.54 -21.04 21.54 -20.36 21.54 C-20.36 18.9 -20.36 16.26 -20.36 13.54 C-20.69 13.54 -21.02 13.54 -21.36 13.54 Z M-6.98 16.98 C-8.45 18.51 -8.45 18.51 -9.36 20.54 C-8.7 20.54 -8.04 20.54 -7.36 20.54 C-8.02 21.53 -8.68 22.52 -9.36 23.54 C-9.6 25.6 -9.6 25.6 -9.48 27.73 C-9.44 28.99 -9.4 30.25 -9.36 31.54 C-6.31 31.22 -5.35 30.54 -3.17 28.29 C-1 24.99 -0.36 22.45 -0.36 18.54 C-0.67 17.21 -1.01 15.87 -1.36 14.54 C-3.76 14.54 -5.27 15.46 -6.98 16.98 Z M1.64 21.54 C1.64 22.86 1.64 24.18 1.64 25.54 C0.65 26.04 0.65 26.04 -0.36 26.54 C0.63 26.54 1.62 26.54 2.64 26.54 C2.64 24.89 2.64 23.24 2.64 21.54 C2.31 21.54 1.98 21.54 1.64 21.54 Z M-11.36 22.54 C-11.36 23.53 -11.36 24.52 -11.36 25.54 C-12.35 26.04 -12.35 26.04 -13.36 26.54 C-12.37 26.54 -11.38 26.54 -10.36 26.54 C-10.69 25.22 -11.02 23.9 -11.36 22.54 Z M-23.36 25.54 C-22.36 28.54 -22.36 28.54 -22.36 28.54 Z M-11.36 33.54 C-10.36 35.54 -10.36 35.54 -10.36 35.54 Z M-9.36 33.54 C-8.36 35.54 -8.36 35.54 -8.36 35.54 Z " fill="#D4F2EE" transform="translate(617.359375,657.45703125)"/>
<path d="M0 0 C4.39 3.59 6.73 6.92 7.45 12.68 C7.02 19.1 7.02 19.1 4.45 21.68 C4.45 23 4.45 24.32 4.45 25.68 C1.08 29.49 -1.44 30.98 -6.49 31.68 C-11.22 31.91 -14.44 31.18 -18.55 28.68 C-23.72 23.51 -25.65 19.02 -25.68 11.8 C-25.65 10.43 -25.61 9.05 -25.55 7.68 C-24.89 7.68 -24.23 7.68 -23.55 7.68 C-23.43 7.08 -23.31 6.48 -23.18 5.87 C-22.55 3.68 -22.55 3.68 -20.55 0.68 C-14.45 -2.47 -6.19 -3.2 0 0 Z M4.45 7.68 C4.12 8.34 3.79 9 3.45 9.68 C4.11 9.68 4.77 9.68 5.45 9.68 C5.12 9.02 4.79 8.36 4.45 7.68 Z M4.45 14.68 C5.45 16.68 5.45 16.68 5.45 16.68 Z M3.45 16.68 C4.45 18.68 4.45 18.68 4.45 18.68 Z " fill="#EBB438" transform="translate(167.5546875,143.3203125)"/>
<path d="M0 0 C2.85 3.28 4.23 6.72 4.44 11.06 C3.72 17.55 1.19 21.8 -3.84 25.86 C-8.06 28.08 -12.4 27.69 -17 27 C-22.18 25.27 -24.93 22.48 -28 18 C-28.81 14.62 -28.81 14.62 -29 12 C-29.33 12 -29.66 12 -30 12 C-30 10.35 -30 8.7 -30 7 C-29.34 7 -28.68 7 -28 7 C-28 5.68 -28 4.36 -28 3 C-27.34 3 -26.68 3 -26 3 C-26 1.68 -26 0.36 -26 -1 C-24.68 -1 -23.36 -1 -22 -1 C-21.77 -1.64 -21.55 -2.28 -21.31 -2.94 C-20 -5 -20 -5 -17.81 -5.81 C-10.68 -6.29 -5.43 -4.56 0 0 Z M2 7 C2 9.31 2 11.62 2 14 C2.33 14 2.66 14 3 14 C3 11.69 3 9.38 3 7 C2.67 7 2.34 7 2 7 Z M0 15 C1 17 1 17 1 17 Z " fill="#4E8B9B" transform="translate(118,375)"/>
<path d="M0 0 C0.99 0.33 1.98 0.66 3 1 C3 1.66 3 2.32 3 3 C3.99 3 4.98 3 6 3 C6 3.99 6 4.98 6 6 C6.66 6 7.32 6 8 6 C10.69 11.37 10.5 16.45 9.38 22.19 C7.6 25.82 5.58 28.17 2 30 C-3.25 31.23 -8.81 31.57 -14 30 C-18.13 27.22 -21.52 24.35 -22.55 19.34 C-22.61 18.41 -22.68 17.47 -22.75 16.5 C-22.83 15.56 -22.9 14.62 -22.98 13.66 C-23 11.21 -22.72 9.32 -22 7 C-21.34 7 -20.68 7 -20 7 C-19.93 6.23 -19.86 5.45 -19.78 4.65 C-19 2 -19 2 -17.03 0.57 C-10.65 -1.97 -6.48 -2.29 0 0 Z M8 12 C8 13.65 8 15.3 8 17 C8.33 17 8.66 17 9 17 C9 15.35 9 13.7 9 12 C8.67 12 8.34 12 8 12 Z M1 26 C1 26.99 1 27.98 1 29 C1.66 28.34 2.32 27.68 3 27 C2.34 26.67 1.68 26.34 1 26 Z " fill="#5291A0" transform="translate(1165,511)"/>
<path d="M0 0 C0.74 0.56 1.48 1.11 2.25 1.69 C3.16 2.31 4.07 2.92 5 3.56 C7.54 5.97 7.96 7.26 8.25 10.69 C8.58 10.69 8.91 10.69 9.25 10.69 C9.25 13.33 9.25 15.97 9.25 18.69 C7.93 19.02 6.61 19.35 5.25 19.69 C5.58 21.01 5.91 22.33 6.25 23.69 C5.26 24.49 4.27 25.3 3.25 26.12 C2.26 26.97 1.27 27.82 0.25 28.69 C0.25 29.02 0.25 29.35 0.25 29.69 C-1.48 29.91 -3.21 30.12 -4.94 30.31 C-5.9 30.43 -6.86 30.54 -7.86 30.66 C-11.03 30.69 -12.94 30.14 -15.75 28.69 C-16.78 27.38 -17.79 26.05 -18.75 24.69 C-19.74 24.36 -20.73 24.03 -21.75 23.69 C-24.39 18.8 -25.1 15.33 -24.75 9.69 C-24.09 9.69 -23.43 9.69 -22.75 9.69 C-22.69 8.97 -22.63 8.24 -22.56 7.5 C-21.27 3.03 -18.4 0.69 -14.5 -1.69 C-9.46 -2.83 -4.65 -2.22 0 0 Z M5.25 14.69 C6.25 18.69 6.25 18.69 6.25 18.69 Z " fill="#4D8C9A" transform="translate(1096.75,84.3125)"/>
<path d="M0 0 C3.11 0.58 6.04 1.65 9 2.75 C10.27 3.21 10.27 3.21 11.56 3.67 C14.72 5.39 16.14 6.91 18 10 C18.39 12.83 18.56 15.18 18.5 18 C18.52 18.7 18.53 19.4 18.55 20.12 C18.52 23.71 18.11 25.83 16.18 28.89 C12.33 32.62 8.48 33.88 3.19 34.31 C-0.75 33.93 -1.29 32.71 -4 30 C-4.33 30.66 -4.66 31.32 -5 32 C-5 31.34 -5 30.68 -5 30 C-5.6 29.93 -6.21 29.87 -6.83 29.8 C-9.88 28.68 -10.37 27.14 -11.75 24.25 C-12.18 23.39 -12.61 22.53 -13.05 21.64 C-14.04 18.9 -14.19 16.89 -14 14 C-13.34 14 -12.68 14 -12 14 C-11.88 13.28 -11.75 12.56 -11.62 11.81 C-11.42 10.88 -11.21 9.96 -11 9 C-10.81 8.13 -10.63 7.27 -10.44 6.38 C-8.48 3.13 -6.3 2.67 -2.78 1.58 C-1 1.15 -1 1.15 0 0 Z M0 32 C0 32.33 0 32.66 0 33 C1.98 33 3.96 33 6 33 C6 32.67 6 32.34 6 32 C4.02 32 2.04 32 0 32 Z " fill="#4C8797" transform="translate(137,184)"/>
<path d="M0 0 C0 0.66 0 1.32 0 2 C0.64 2.31 1.28 2.62 1.94 2.94 C4 4 4 4 5 5 C6.39 20.47 6.39 20.47 3.61 25.53 C0.94 27.9 -1.07 28.89 -4.62 29.31 C-5.41 29.21 -6.19 29.11 -7 29 C-7.74 29.25 -8.48 29.5 -9.25 29.75 C-13.76 30.16 -17.2 28.3 -21 26 C-25.11 22.19 -25.38 18.44 -25.69 13.06 C-25.55 8.25 -25.24 5.29 -21.88 1.75 C-15.25 -3.51 -7.47 -4.67 0 0 Z M3 6 C4 8 4 8 4 8 Z M3 18 C4 21 4 21 4 21 Z " fill="#4B8C9C" transform="translate(121,297)"/>
<path d="M0 0 C0.85 0.17 1.7 0.34 2.57 0.52 C4.88 1.19 4.88 1.19 7.88 3.19 C8.2 4.18 8.54 5.17 8.88 6.19 C9.87 6.85 10.86 7.51 11.88 8.19 C13 11.18 13.01 14.08 13 17.25 C13 18.54 13 18.54 13.01 19.85 C12.88 22.19 12.88 22.19 11.88 25.19 C11.21 25.19 10.56 25.19 9.88 25.19 C9.88 25.85 9.88 26.51 9.88 27.19 C9.21 27.19 8.56 27.19 7.88 27.19 C7.55 28.18 7.21 29.17 6.88 30.19 C-8.92 31.39 -8.92 31.39 -13.81 28.72 C-17.93 24.25 -19.45 19.14 -20.12 13.19 C-19.47 13.19 -18.81 13.19 -18.12 13.19 C-18.29 12.34 -18.46 11.5 -18.62 10.62 C-17.95 5.98 -15.83 4.57 -12.36 1.61 C-8.19 -1.04 -4.73 -1.01 0 0 Z M9.88 8.19 C10.88 10.19 10.88 10.19 10.88 10.19 Z " fill="#4B8796" transform="translate(260.125,1.8125)"/>
<path d="M0 0 C1.28 -0 1.28 -0 2.59 -0.01 C4.95 0.12 6.85 0.3 9.06 1.12 C10.45 3.09 11.79 5.09 13.06 7.12 C13.72 7.45 14.38 7.79 15.06 8.12 C17.76 11.87 17.21 15.7 17.06 20.12 C16.73 19.13 16.4 18.14 16.06 17.12 C14.62 21.55 14.62 21.55 14.06 26.12 C12.41 26.45 10.76 26.79 9.06 27.12 C9.06 28.12 9.06 29.11 9.06 30.12 C6.27 30.15 3.48 30.17 0.69 30.19 C-0.5 30.2 -0.5 30.2 -1.72 30.21 C-7.71 30.24 -7.71 30.24 -9.94 29.12 C-9.94 28.46 -9.94 27.81 -9.94 27.12 C-10.6 27.12 -11.26 27.12 -11.94 27.12 C-11.94 26.13 -11.94 25.14 -11.94 24.12 C-12.6 23.8 -13.26 23.46 -13.94 23.12 C-15.32 20.36 -15.03 18.08 -15 15 C-14.99 13.9 -14.98 12.81 -14.97 11.68 C-14.96 10.84 -14.95 9.99 -14.94 9.12 C-14.28 9.12 -13.62 9.12 -12.94 9.12 C-12.86 8.36 -12.77 7.6 -12.69 6.81 C-11.78 3.55 -10.81 2.81 -7.94 1.12 C-5 0.15 -3.06 -0.01 0 0 Z M15.06 12.12 C16.06 14.12 16.06 14.12 16.06 14.12 Z M13.06 18.12 C14.06 21.12 14.06 21.12 14.06 21.12 Z " fill="#498594" transform="translate(1171.9375,435.875)"/>
<path d="M0 0 C1.42 -0.04 1.42 -0.04 2.87 -0.09 C8.71 -0.14 12.25 0.28 16.81 4.31 C18.5 6.21 18.5 6.21 19.81 8.12 C22.61 12.07 25.63 15.68 28.81 19.31 C29.47 16.34 30.13 13.37 30.81 10.31 C30.15 9.98 29.49 9.65 28.81 9.31 C30.13 7.99 31.45 6.67 32.81 5.31 C33.14 11.91 33.47 18.51 33.81 25.31 C34.14 25.31 34.47 25.31 34.81 25.31 C34.81 27.29 34.81 29.27 34.81 31.31 C32.5 31.94 32.5 31.94 29.81 32.31 C26.97 30.41 26.23 29.71 24.69 26.88 C24.35 26.28 24.02 25.68 23.68 25.07 C22.81 23.31 22.81 23.31 21.81 20.31 C21.15 20.31 20.49 20.31 19.81 20.31 C19.15 18.66 18.49 17.01 17.81 15.31 C17.15 15.31 16.49 15.31 15.81 15.31 C14.82 14.32 13.83 13.33 12.81 12.31 C12.81 19.24 12.81 26.17 12.81 33.31 C7.81 34.31 7.81 34.31 5.81 33.31 C5.19 31.25 5.19 31.25 4.81 29.31 C5.8 28.98 6.79 28.65 7.81 28.31 C7.98 26.85 8.15 25.4 8.31 23.94 C8.45 22.72 8.45 22.72 8.59 21.48 C8.85 19.34 8.85 19.34 8.81 17.31 C8.15 17.31 7.49 17.31 6.81 17.31 C6.9 16.54 6.98 15.77 7.07 14.98 C7.17 13.97 7.27 12.97 7.38 11.94 C7.48 10.94 7.58 9.94 7.69 8.91 C8.02 6.33 8.02 6.33 6.81 4.31 C3.18 4.31 -0.45 4.31 -4.19 4.31 C-4.19 5.3 -4.19 6.29 -4.19 7.31 C-3.2 6.32 -2.21 5.33 -1.19 4.31 C0.14 6.98 -0.6 8.46 -1.19 11.31 C-0.86 11.64 -0.53 11.97 -0.19 12.31 C-0.06 15.3 -0 18.26 0 21.25 C0.01 22.09 0.02 22.92 0.04 23.79 C0.04 24.99 0.04 24.99 0.04 26.21 C0.05 26.95 0.05 27.69 0.06 28.45 C-0.19 30.31 -0.19 30.31 -2.19 32.31 C-1.53 32.97 -0.87 33.63 -0.19 34.31 C-2.83 34.31 -5.47 34.31 -8.19 34.31 C-8.52 32.66 -8.85 31.01 -9.19 29.31 C-8.86 29.31 -8.53 29.31 -8.19 29.31 C-8.1 25.4 -8.05 21.48 -8 17.56 C-7.97 16.45 -7.95 15.34 -7.92 14.2 C-7.91 13.13 -7.9 12.06 -7.89 10.95 C-7.87 9.48 -7.87 9.48 -7.85 7.97 C-8.24 4.92 -9.16 3.57 -11.19 1.31 C-8.84 -1.04 -3.15 0.03 0 0 Z M-2.19 13.31 C-2.19 16.94 -2.19 20.57 -2.19 24.31 C-1.86 24.31 -1.53 24.31 -1.19 24.31 C-1.19 20.68 -1.19 17.05 -1.19 13.31 C-1.52 13.31 -1.85 13.31 -2.19 13.31 Z M9.81 30.31 C10.14 31.3 10.47 32.29 10.81 33.31 C11.14 32.32 11.47 31.33 11.81 30.31 C11.15 30.31 10.49 30.31 9.81 30.31 Z " fill="#C4DFDE" transform="translate(487.1875,659.6875)"/>
<path d="M0 0 C0.33 0.66 0.66 1.32 1 2 C1.62 2.06 2.24 2.12 2.88 2.19 C5 3 5 3 6.81 6.19 C8.03 10.1 8.05 12.1 7 16 C6.5 15.01 6.5 15.01 6 14 C5.01 14 4.02 14 3 14 C3.5 15.49 3.5 15.49 4 17 C3.5 18.49 3.5 18.49 3 20 C0.03 20.33 -2.94 20.66 -6 21 C-6.08 25.52 -6.1 29.59 -5 34 C-7.96 35.48 -10.74 35.06 -14 35 C-15.13 31.62 -14.73 30.4 -14 27 C-13.92 25.23 -13.89 23.47 -13.9 21.7 C-13.91 20.23 -13.91 20.23 -13.91 18.74 C-13.92 17.73 -13.93 16.73 -13.94 15.69 C-13.94 14.66 -13.95 13.63 -13.95 12.58 C-13.96 10.05 -13.98 7.53 -14 5 C-17.99 3.94 -17.99 3.94 -21.81 5.44 C-22.53 5.95 -23.26 6.47 -24 7 C-23.34 7 -22.68 7 -22 7 C-22 13.6 -22 20.2 -22 27 C-22.33 27 -22.66 27 -23 27 C-23 22.71 -23 18.42 -23 14 C-24.67 19.02 -24.24 23.9 -23 29 C-23.99 29 -24.98 29 -26 29 C-27.71 27.29 -27.37 24.96 -27.56 22.62 C-27.65 21.65 -27.73 20.67 -27.82 19.66 C-28.02 16.78 -28.07 14.33 -27.44 11.5 C-26.78 8.88 -26.78 8.88 -28 6 C-27.67 5.34 -27.34 4.68 -27 4 C-27.99 3.67 -28.98 3.34 -30 3 C-29.67 2.34 -29.34 1.68 -29 1 C-28.25 1.01 -27.49 1.02 -26.72 1.04 C-17.77 1.11 -8.92 0.64 0 0 Z M-9 4 C-9 7.96 -9 11.92 -9 16 C-8.67 16 -8.34 16 -8 16 C-8 12.37 -8 8.74 -8 5 C-7 6 -7 6 -6.9 8.29 C-6.91 9.2 -6.93 10.12 -6.94 11.06 C-6.95 11.98 -6.96 12.9 -6.96 13.85 C-6.98 14.56 -6.99 15.27 -7 16 C-6.01 16.33 -5.02 16.66 -4 17 C-1.38 15.61 -1.38 15.61 1 14 C1.33 14 1.66 14 2 14 C2.26 11.02 2.01 9.02 1 6.19 C-0.74 3.83 -0.74 3.83 -2.98 3.69 C-4.99 3.69 -7 3.84 -9 4 Z M5 6 C6 8 6 8 6 8 Z M-9 19 C-8 23 -8 23 -8 23 Z M-9 24 C-9 26.31 -9 28.62 -9 31 C-8.67 31 -8.34 31 -8 31 C-8 28.69 -8 26.38 -8 24 C-8.33 24 -8.66 24 -9 24 Z M-26 26 C-25 28 -25 28 -25 28 Z M-9 32 C-9.66 32.66 -10.32 33.32 -11 34 C-10.01 34 -9.02 34 -8 34 C-8.33 33.34 -8.66 32.68 -9 32 Z " fill="#D0E8E5" transform="translate(805,659)"/>
<path d="M0 0 C1.29 -0.02 2.57 -0.04 3.9 -0.06 C9.33 0.66 12.34 3.05 16 7 C18.26 11.78 18.3 16.22 17.62 21.44 C16.67 23.63 16.67 23.63 15.62 25.44 C15.25 26.18 14.88 26.92 14.5 27.69 C14.21 28.26 13.92 28.84 13.62 29.44 C12.63 28.45 11.64 27.46 10.62 26.44 C10.62 28.09 10.62 29.74 10.62 31.44 C4.61 33.71 -1.08 33.93 -7.38 32.44 C-9.08 30.95 -9.08 30.95 -10.38 29.44 C-11.03 29.11 -11.7 28.78 -12.38 28.44 C-12.38 27.78 -12.38 27.12 -12.38 26.44 C-13.03 26.11 -13.7 25.78 -14.38 25.44 C-15.45 19.35 -16.78 11.78 -13.69 6.19 C-9.35 1.03 -6.84 0.01 0 0 Z M-6.38 3.44 C-6.33 4.18 -6.29 4.92 -6.25 5.69 C-6.38 8.44 -6.38 8.44 -7.36 10.32 C-9.23 14.22 -9.01 18.22 -8.38 22.44 C-7.01 25.66 -5.33 28.54 -3.38 31.44 C-1.92 31.52 -0.46 31.58 1 31.62 C2.22 31.68 2.22 31.68 3.46 31.73 C4.18 31.63 4.89 31.54 5.62 31.44 C7.73 28.57 7.73 28.57 8.62 25.44 C9.28 25.44 9.95 25.44 10.62 25.44 C10.73 23.06 10.81 20.69 10.88 18.31 C10.91 17.65 10.94 16.98 10.98 16.3 C11.08 11.17 9.85 8.37 6.62 4.44 C3.67 2.96 0.88 3.38 -2.38 3.44 C-2.38 4.1 -2.38 4.76 -2.38 5.44 C-3.03 5.44 -3.7 5.44 -4.38 5.44 C-4.38 4.78 -4.38 4.12 -4.38 3.44 C-5.03 3.44 -5.7 3.44 -6.38 3.44 Z M-9.38 7.44 C-8.38 11.44 -8.38 11.44 -8.38 11.44 Z M13.62 20.44 C14.62 22.44 14.62 22.44 14.62 22.44 Z " fill="#D1EAE7" transform="translate(732.375,659.5625)"/>
<path d="M0 0 C2.93 0.01 5.82 0.1 8.75 0.25 C9.56 0.28 10.37 0.3 11.21 0.33 C15.93 0.57 19.11 1.06 23 4 C22.93 4.64 22.86 5.28 22.78 5.93 C22.64 7.17 22.64 7.17 22.5 8.44 C22.36 9.67 22.36 9.67 22.22 10.93 C22.06 12.46 22.06 12.46 22 14 C21.46 14.58 20.93 15.15 20.38 15.75 C19.92 16.49 19.47 17.24 19 18 C19.95 21.71 21.99 24.76 24 28 C24.33 28.66 24.66 29.32 25 30 C25.99 30.33 26.98 30.66 28 31 C27.67 31.66 27.34 32.32 27 33 C22.5 32.83 20.58 32.61 17.42 29.28 C16.65 28.18 15.91 27.06 15.19 25.94 C13.83 23.92 12.45 21.96 11 20 C10.34 20 9.68 20 9 20 C8.8 26.08 8.8 26.08 10 32 C8.68 32 7.36 32 6 32 C6 32.66 6 33.32 6 34 C5.34 34 4.68 34 4 34 C4 33.34 4 32.68 4 32 C3.01 31.67 2.02 31.34 1 31 C1 28.1 1.03 25.21 1.07 22.31 C1.09 20.02 1.11 17.73 1.12 15.44 C1.14 14.28 1.16 13.11 1.18 11.92 C1.18 10.81 1.19 9.7 1.2 8.56 C1.21 7.03 1.21 7.03 1.23 5.47 C1.25 2.82 1.25 2.82 -1 1 C-0.67 0.67 -0.34 0.34 0 0 Z M10 2 C7.48 5.78 7.36 8.56 8 13 C9.33 15.01 9.33 15.01 11 16 C14.48 14.84 15.22 14.14 17 11 C17.42 6.9 17.33 5.49 15 2 C12.5 1.5 12.5 1.5 10 2 Z M6 3 C6 5.97 6 8.94 6 12 C6.33 12 6.66 12 7 12 C7 9.03 7 6.06 7 3 C6.67 3 6.34 3 6 3 Z M16 15 C16 15.66 16 16.32 16 17 C16.66 16.67 17.32 16.34 18 16 C17.34 15.67 16.68 15.34 16 15 Z M6 16 C6 20.29 6 24.58 6 29 C6.33 29 6.66 29 7 29 C7 24.71 7 20.42 7 16 C6.67 16 6.34 16 6 16 Z M16 18 C17 20 17 20 17 20 Z M20 29 C21 31 21 31 21 31 Z " fill="#C5D9D5" transform="translate(686,660)"/>
<path d="M0 0 C1.98 0.66 3.96 1.32 6 2 C6.12 2.91 6.25 3.82 6.38 4.75 C7.05 8.25 8.28 10.71 10 13.79 C12.86 19.03 14.08 24.12 15 30 C15.99 30.33 16.98 30.66 18 31 C18 31.33 18 31.66 18 32 C15.03 32 12.06 32 9 32 C8.58 29.95 8.15 27.9 7.73 25.85 C7.37 24.93 7.37 24.93 7 24 C2.53 22.51 -1.53 22.51 -6 24 C-5.79 25.28 -5.59 26.56 -5.38 27.88 C-5.02 30.05 -5.02 30.05 -5 32 C-7 34 -7 34 -10.12 34.12 C-11.07 34.08 -12.02 34.04 -13 34 C-13 30.14 -12.49 28.43 -11 25 C-10.67 24.01 -10.34 23.02 -10 22 C-9.33 20.67 -8.67 19.33 -8 18 C-7.69 17.11 -7.38 16.23 -7.06 15.31 C-6.71 14.55 -6.36 13.79 -6 13 C-5.01 12.67 -4.02 12.34 -3 12 C-3.33 11.01 -3.66 10.02 -4 9 C-3.05 5.5 -2.02 3.03 0 0 Z M4 6 C4.33 6.66 4.66 7.32 5 8 C5.33 7.34 5.66 6.68 6 6 C5.34 6 4.68 6 4 6 Z M-1 11 C0 13 0 13 0 13 Z M1 12 C-1.95 16.27 -1.95 16.27 -4 21 C-1.36 21.33 1.28 21.66 4 22 C4.87 19.75 4.87 19.75 5 17 C3.17 14.19 3.17 14.19 1 12 Z M-6 14 C-5.67 14.99 -5.34 15.98 -5 17 C-5 16.01 -5 15.02 -5 14 C-5.33 14 -5.66 14 -6 14 Z M11 21 C12 25 12 25 12 25 Z M-8 28 C-8 28.66 -8 29.32 -8 30 C-8.66 30 -9.32 30 -10 30 C-10 30.99 -10 31.98 -10 33 C-9.01 32.67 -8.02 32.34 -7 32 C-7.33 30.68 -7.66 29.36 -8 28 Z " fill="#AFCFCF" transform="translate(541,660)"/>
<path d="M0 0 C0.33 0.66 0.66 1.32 1 2 C1.63 1.98 2.25 1.95 2.9 1.93 C3.72 1.91 4.53 1.89 5.38 1.88 C6.19 1.85 7 1.83 7.84 1.8 C10 2 10 2 12 4 C11.34 4 10.68 4 10 4 C9.82 8.04 9.99 10.51 12 14 C12.5 15.2 12.99 16.39 13.5 17.62 C14.76 21 14.76 21 17 23 C17.22 22.07 17.22 22.07 17.44 21.12 C18 19 18 19 19 17 C19 16.34 19 15.68 19 15 C19.66 15 20.32 15 21 15 C21.33 14.01 21.66 13.02 22 12 C22.33 11.34 22.66 10.68 23 10 C22.68 8 22.68 8 22.06 5.88 C21.77 4.79 21.77 4.79 21.47 3.68 C21.32 3.13 21.16 2.57 21 2 C25.05 0.65 27.79 1.38 32 2 C32 2.99 32 3.98 32 5 C30.68 5.33 29.36 5.66 28 6 C28.66 6.33 29.32 6.66 30 7 C29.53 7.41 29.05 7.83 28.56 8.25 C26.77 10.26 26.52 11.38 26 14 C25.35 16 24.68 18 24 20 C23.67 20.99 23.34 21.98 23 23 C22 24.91 20.98 26.8 19.94 28.69 C19.39 29.68 18.84 30.68 18.28 31.7 C17.86 32.46 17.43 33.22 17 34 C15.16 33.82 15.16 33.82 13 33 C11.62 30.74 11.62 30.74 10.44 27.88 C10.02 26.88 9.59 25.88 9.16 24.86 C8.78 23.91 8.39 22.97 8 22 C6.53 18.54 5.07 15.14 3.31 11.81 C2 9 2 9 2 5 C1.01 4.67 0.02 4.34 -1 4 C-0.67 2.68 -0.34 1.36 0 0 Z M8 4 C8 5.98 8 7.96 8 10 C8.33 10 8.66 10 9 10 C9 8.02 9 6.04 9 4 C8.67 4 8.34 4 8 4 Z M19 22 C19.66 22.66 20.32 23.32 21 24 C21 23.34 21 22.68 21 22 C20.34 22 19.68 22 19 22 Z M15 30 C15 30.99 15 31.98 15 33 C15.66 32.67 16.32 32.34 17 32 C17 31.34 17 30.68 17 30 C16.34 30 15.68 30 15 30 Z " fill="#C4DCDA" transform="translate(442,658)"/>
<path d="M0 0 C1.15 0.1 2.3 0.2 3.49 0.31 C4.36 0.39 5.23 0.48 6.12 0.56 C6.46 3.53 6.78 6.5 7.12 9.56 C6.13 9.56 5.14 9.56 4.12 9.56 C3.38 8.74 2.64 7.91 1.88 7.06 C-0.7 4.25 -0.7 4.25 -4.38 4.06 C-8.05 4.59 -10.02 5.21 -12.88 7.56 C-13.69 9.57 -13.69 9.57 -13.88 11.56 C-14.21 12.22 -14.53 12.88 -14.88 13.56 C-15.59 18.55 -15.42 22.41 -12.5 26.62 C-11.63 27.59 -10.77 28.56 -9.88 29.56 C-9.22 29.56 -8.55 29.56 -7.88 29.56 C-7.88 30.22 -7.88 30.88 -7.88 31.56 C-5.89 31.56 -3.91 31.56 -1.88 31.56 C-1.88 32.22 -1.88 32.88 -1.88 33.56 C-1.22 33.89 -0.55 34.22 0.12 34.56 C-15.17 33.16 -15.17 33.16 -19.88 27.56 C-23.26 22.54 -23.54 17.45 -23.88 11.56 C-22.88 11.23 -21.89 10.9 -20.88 10.56 C-20.79 9.78 -20.71 9 -20.62 8.19 C-19.88 5.56 -19.88 5.56 -17.88 4.44 C-17.22 4.15 -16.55 3.86 -15.88 3.56 C-15.54 2.57 -15.22 1.58 -14.88 0.56 C-14.54 1.22 -14.22 1.88 -13.88 2.56 C-13.54 1.9 -13.22 1.24 -12.88 0.56 C-8.46 -0.53 -4.5 -0.41 0 0 Z M-15.88 9.56 C-14.88 11.56 -14.88 11.56 -14.88 11.56 Z M-19.88 12.56 C-18.88 14.56 -18.88 14.56 -18.88 14.56 Z " fill="#A2C2C2" transform="translate(671.875,659.4375)"/>
<path d="M0 0 C2.01 0.13 2.01 0.13 5.01 1.13 C4.9 2.64 4.9 2.64 4.79 4.17 C5.04 8.78 6.28 11.53 8.45 15.51 C8.93 16.45 8.93 16.45 9.43 17.41 C10.93 20.47 10.93 20.47 13.01 23.13 C13.67 22.14 14.33 21.15 15.01 20.13 C15.67 20.13 16.33 20.13 17.01 20.13 C15.69 24.75 13.79 28.23 11.01 32.13 C9.15 31.94 9.15 31.94 7.01 31.13 C5.74 28.92 5.74 28.92 4.76 26.2 C4.42 25.3 4.09 24.4 3.74 23.48 C3.01 21.13 3.01 21.13 3.01 19.13 C2.02 18.8 1.03 18.47 0.01 18.13 C-0.12 17.25 -0.24 16.36 -0.37 15.45 C-1.44 9.78 -3.7 5.85 -6.99 1.13 C-5.11 -0.75 -2.49 0.01 0 0 Z M2.01 2.13 C2.01 4.11 2.01 6.09 2.01 8.13 C2.34 8.13 2.67 8.13 3.01 8.13 C3.01 6.15 3.01 4.17 3.01 2.13 C2.68 2.13 2.35 2.13 2.01 2.13 Z M11.01 25.13 C10.68 25.79 10.35 26.45 10.01 27.13 C11 26.8 11.99 26.47 13.01 26.13 C12.35 25.8 11.69 25.47 11.01 25.13 Z M9.01 28.13 C9.01 29.12 9.01 30.11 9.01 31.13 C9.67 30.8 10.33 30.47 11.01 30.13 C11.01 29.47 11.01 28.81 11.01 28.13 C10.35 28.13 9.69 28.13 9.01 28.13 Z " fill="#C6DAD6" transform="translate(562.9921875,659.8671875)"/>
<path d="M0 0 C1.35 0.15 1.35 0.15 2.73 0.31 C3.42 0.39 4.1 0.48 4.81 0.56 C4.81 1.55 4.81 2.54 4.81 3.56 C2.83 3.56 0.85 3.56 -1.19 3.56 C-0.7 3.97 -0.21 4.39 0.3 4.81 C2.15 6.95 2.16 7.83 2.07 10.62 C2.05 11.79 2.05 11.79 2.03 12.98 C2 13.79 1.97 14.6 1.94 15.44 C1.69 22.56 1.69 22.56 2.81 29.56 C3.47 29.56 4.13 29.56 4.81 29.56 C4.81 30.22 4.81 30.88 4.81 31.56 C7.12 31.56 9.43 31.56 11.81 31.56 C12.14 30.9 12.47 30.24 12.81 29.56 C15.38 28.94 15.38 28.94 17.81 28.56 C17.81 29.55 17.81 30.54 17.81 31.56 C11.89 34.4 6.13 33.97 -0.19 32.56 C-5.84 27.04 -6.46 18.88 -6.75 11.31 C-6.95 5.86 -6.95 5.86 -8.19 0.56 C-4.99 -0.5 -3.3 -0.39 0 0 Z M-1.19 10.56 C-1.52 14.85 -1.85 19.14 -2.19 23.56 C-1.2 24.06 -1.2 24.06 -0.19 24.56 C-0.19 19.94 -0.19 15.32 -0.19 10.56 C-0.52 10.56 -0.85 10.56 -1.19 10.56 Z " fill="#DFEFEA" transform="translate(761.1875,659.4375)"/>
<path d="M0 0 C0.33 0 0.66 0 1 0 C0.97 2.05 0.93 4.1 0.9 6.15 C0.79 8.02 0.79 8.02 2 9 C2.41 12.15 2.77 15.29 3.07 18.45 C3.52 22.34 3.91 24.52 7 27 C7 27.66 7 28.32 7 29 C16.99 30.83 16.99 30.83 27 30 C27.66 30.33 28.32 30.66 29 31 C28.67 31.99 28.34 32.98 28 34 C23.5 36.09 18.89 36.85 14 36 C7.15 33.46 2.08 29.01 -2 23 C-4.53 17.32 -4.24 11.99 -3 6 C-1.44 2.38 -1.44 2.38 0 0 Z M-1 13 C0 16 0 16 0 16 Z " fill="#7BCDD3" transform="translate(595,670)"/>
<path d="M0 0 C13.86 0.5 13.86 0.5 28 1 C28 1.99 28 2.98 28 4 C25.36 3.67 22.72 3.34 20 3 C20 10.26 20 17.52 20 25 C18 23 18 23 17.77 20.94 C17.78 20.11 17.79 19.28 17.8 18.43 C17.81 17.53 17.82 16.64 17.82 15.71 C17.84 14.78 17.86 13.84 17.88 12.88 C17.88 11.93 17.89 10.99 17.9 10.01 C17.93 7.67 17.96 5.34 18 3 C16.11 2.95 16.11 2.95 14.19 2.91 C13.13 2.88 13.13 2.88 12.04 2.85 C9.14 3.06 7.29 4.28 5 6 C5.66 6 6.32 6 7 6 C7 12.6 7 19.2 7 26 C6.67 26 6.34 26 6 26 C6 21.71 6 17.42 6 13 C4.33 18.02 4.76 22.9 6 28 C5.01 28 4.02 28 3 28 C1.29 26.29 1.63 23.96 1.44 21.62 C1.35 20.65 1.27 19.67 1.18 18.66 C0.98 15.78 0.93 13.33 1.56 10.5 C2.22 7.88 2.22 7.88 1 5 C1.33 4.34 1.66 3.68 2 3 C1.01 2.67 0.02 2.34 -1 2 C-0.67 1.34 -0.34 0.68 0 0 Z M3 25 C4 27 4 27 4 27 Z " fill="#50676A" transform="translate(776,660)"/>
<path d="M0 0 C1.91 0.13 1.91 0.13 3.91 1.13 C3.75 1.67 3.58 2.2 3.41 2.75 C2.81 5.62 2.81 8.27 2.85 11.2 C2.86 12.24 2.87 13.28 2.88 14.36 C2.89 15.27 2.9 16.19 2.91 17.13 C2.91 19.45 2.88 21.76 2.85 24.07 C2.84 26.92 3 29.4 3.91 32.13 C2.59 32.13 1.27 32.13 -0.09 32.13 C-0.09 32.79 -0.09 33.45 -0.09 34.13 C-0.75 34.13 -1.41 34.13 -2.09 34.13 C-2.09 33.47 -2.09 32.81 -2.09 32.13 C-3.08 31.8 -4.07 31.47 -5.09 31.13 C-5.09 28.23 -5.06 25.34 -5.02 22.44 C-5 20.15 -4.98 17.86 -4.96 15.57 C-4.95 14.41 -4.93 13.25 -4.91 12.05 C-4.91 10.94 -4.9 9.83 -4.89 8.69 C-4.88 7.16 -4.88 7.16 -4.86 5.61 C-4.84 2.96 -4.84 2.96 -7.09 1.13 C-5.19 -0.77 -2.52 0.01 0 0 Z M-0.09 3.13 C-0.09 6.1 -0.09 9.07 -0.09 12.13 C0.24 12.13 0.57 12.13 0.91 12.13 C0.91 9.16 0.91 6.19 0.91 3.13 C0.58 3.13 0.25 3.13 -0.09 3.13 Z M-0.09 16.13 C-0.09 20.42 -0.09 24.71 -0.09 29.13 C0.24 29.13 0.57 29.13 0.91 29.13 C0.91 24.84 0.91 20.55 0.91 16.13 C0.58 16.13 0.25 16.13 -0.09 16.13 Z " fill="#BBD3D1" transform="translate(692.08984375,659.8671875)"/>
<path d="M0 0 C0.33 0 0.66 0 1 0 C1.33 6.6 1.66 13.2 2 20 C2.33 20 2.66 20 3 20 C3 21.98 3 23.96 3 26 C0.69 26.62 0.69 26.62 -2 27 C-4.85 25.1 -5.58 24.39 -7.12 21.56 C-7.62 20.67 -7.62 20.67 -8.13 19.75 C-9 18 -9 18 -10 15 C-10.66 15 -11.32 15 -12 15 C-13.67 11.67 -15.33 8.33 -17 5 C-12.54 5.5 -10.42 7.02 -7.19 10.06 C-6.4 10.8 -5.61 11.53 -4.79 12.29 C-3.91 13.13 -3.91 13.13 -3 14 C-2.34 11.03 -1.68 8.06 -1 5 C-1.66 4.67 -2.32 4.34 -3 4 C-2.03 2.65 -1.03 1.31 0 0 Z " fill="#ACD0D2" transform="translate(519,665)"/>
<path d="M0 0 C4.96 1.02 9 2.96 12.64 6.48 C13.85 8.98 13.87 10.8 13.64 13.54 C9.93 12.31 8.87 10.69 6.64 7.54 C6.64 6.88 6.64 6.22 6.64 5.54 C5.65 5.54 4.67 5.54 3.65 5.54 C-0.69 5.54 -5.02 5.54 -9.36 5.54 C-9.69 6.2 -10.02 6.86 -10.36 7.54 C-11.02 7.54 -11.68 7.54 -12.36 7.54 C-12.69 8.53 -13.02 9.52 -13.36 10.54 C-14.02 10.54 -14.68 10.54 -15.36 10.54 C-15.36 11.2 -15.36 11.86 -15.36 12.54 C-16.02 12.54 -16.68 12.54 -17.36 12.54 C-18.02 15.51 -18.68 18.48 -19.36 21.54 C-19.69 21.54 -20.02 21.54 -20.36 21.54 C-21.71 11.24 -21.71 11.24 -20.36 8.54 C-19.7 8.54 -19.04 8.54 -18.36 8.54 C-18.15 7.94 -17.95 7.35 -17.73 6.73 C-15.84 3.72 -13.56 2.98 -10.36 1.54 C-6.48 -1.04 -4.48 -0.56 0 0 Z " fill="#B9E4E3" transform="translate(617.359375,657.45703125)"/>
<path d="M0 0 C4.16 1.33 6.1 2.88 8.69 6.38 C9.27 7.15 9.85 7.92 10.45 8.71 C11.84 10.76 12.96 12.76 14 15 C11.8 13.05 11.8 13.05 9.61 11.09 C7.91 9.72 7.91 9.72 5 10 C5.66 11.32 6.32 12.64 7 14 C6.34 14 5.68 14 5 14 C4.01 13.01 3.02 12.02 2 11 C2 17.93 2 24.86 2 32 C-3 33 -3 33 -5 32 C-5.62 29.94 -5.62 29.94 -6 28 C-5.01 27.67 -4.02 27.34 -3 27 C-2.83 25.54 -2.67 24.08 -2.5 22.62 C-2.41 21.81 -2.31 21 -2.22 20.16 C-1.97 18.03 -1.97 18.03 -2 16 C-2.66 16 -3.32 16 -4 16 C-3.89 13.85 -3.76 11.71 -3.62 9.56 C-3.56 8.37 -3.49 7.17 -3.41 5.94 C-3.28 4.97 -3.14 4 -3 3 C-2.34 2.67 -1.68 2.34 -1 2 C-0.34 4.31 0.32 6.62 1 9 C1.66 8.34 2.32 7.68 3 7 C2.5 6.59 2.01 6.17 1.5 5.75 C0 4 0 4 0 0 Z M-1 29 C-0.67 29.99 -0.34 30.98 0 32 C0.33 31.01 0.66 30.02 1 29 C0.34 29 -0.32 29 -1 29 Z " fill="#C7DFDC" transform="translate(498,661)"/>
<path d="M0 0 C0.33 0.66 0.66 1.32 1 2 C1.63 1.98 2.25 1.95 2.9 1.93 C3.72 1.91 4.53 1.89 5.38 1.88 C6.19 1.85 7 1.83 7.84 1.8 C10 2 10 2 12 4 C11.34 4 10.68 4 10 4 C9.74 8.06 9.74 8.06 10.93 11.85 C12.21 14.42 12.72 16.81 13.25 19.62 C13.44 20.59 13.63 21.55 13.83 22.54 C13.88 23.35 13.94 24.16 14 25 C13.34 25.66 12.68 26.32 12 27 C11.34 25.35 10.68 23.7 10 22 C9.34 22 8.68 22 8 22 C7.57 20.97 7.13 19.94 6.69 18.88 C5.65 16.44 4.56 14.16 3.31 11.81 C2 9 2 9 2 5 C1.01 4.67 0.02 4.34 -1 4 C-0.67 2.68 -0.34 1.36 0 0 Z M8 4 C8 5.98 8 7.96 8 10 C8.33 10 8.66 10 9 10 C9 8.02 9 6.04 9 4 C8.67 4 8.34 4 8 4 Z " fill="#9DC2C3" transform="translate(442,658)"/>
<path d="M0 0 C3.11 0.91 4.09 1.36 6 3.88 C6.29 6.14 6.29 6.14 6.19 8.56 C6.16 9.37 6.13 10.18 6.11 11.01 C6.07 11.63 6.04 12.24 6 12.88 C3.27 14.39 2.15 14.88 -1.06 14.75 C-4 13.88 -4 13.88 -5.94 12.25 C-7.48 8.79 -6.92 6.49 -6 2.88 C-4.22 -0.12 -3.5 -0.15 0 0 Z M3 6.88 C4 8.88 4 8.88 4 8.88 Z M2 10.88 C2 11.53 2 12.2 2 12.88 C2.66 12.54 3.32 12.22 4 11.88 C3.34 11.54 2.68 11.22 2 10.88 Z " fill="#57939D" transform="translate(164,626.125)"/>
<path d="M0 0 C2.96 1.26 4.84 2.52 7.06 4.88 C7.38 8.62 7.38 8.62 7.06 11.88 C6.4 11.88 5.74 11.88 5.06 11.88 C5.06 12.54 5.06 13.19 5.06 13.88 C2.23 15.29 0.19 15.19 -2.94 14.88 C-4.81 13.12 -4.81 13.12 -5.94 10.88 C-5.94 9.56 -5.94 8.24 -5.94 6.88 C-6.6 6.55 -7.26 6.21 -7.94 5.88 C-7.28 5.88 -6.62 5.88 -5.94 5.88 C-5.94 4.56 -5.94 3.24 -5.94 1.88 C-3.84 0.6 -2.49 -0.16 0 0 Z M4.06 4.88 C4.39 6.86 4.72 8.83 5.06 10.88 C5.39 10.88 5.72 10.88 6.06 10.88 C6.06 8.89 6.06 6.92 6.06 4.88 C5.4 4.88 4.74 4.88 4.06 4.88 Z M3.06 8.88 C4.06 10.88 4.06 10.88 4.06 10.88 Z " fill="#578690" transform="translate(1175.9375,378.125)"/>
<path d="M0 0 C0.67 3.33 1.33 6.67 2 10 C-5.62 12 -5.62 12 -9 12 C-11.12 9.88 -11.92 8.46 -12.44 5.5 C-12 3 -12 3 -10.5 0.62 C-6.74 -1.82 -4.32 -0.86 0 0 Z " fill="#C05C38" transform="translate(1180,408)"/>
<path d="M0 0 C2 1.88 2 1.88 3 4 C2.33 6 1.67 8 1 10 C1.66 10.33 2.32 10.66 3 11 C2.34 11 1.68 11 1 11 C0.67 11.66 0.34 12.32 0 13 C-2.31 13.88 -2.31 13.88 -5 14 C-7.29 12.16 -8.69 10.63 -10 8 C-10.26 4.93 -10.44 2.8 -8.94 0.06 C-5.75 -1.69 -3.41 -0.91 0 0 Z " fill="#5A8891" transform="translate(181,652)"/>
<path d="M0 0 C3.69 0.42 5.22 1.64 7.75 4.31 C8.23 7.53 7.67 10.22 6.75 13.31 C5.76 13.31 4.77 13.31 3.75 13.31 C2.08 13.62 0.41 13.95 -1.25 14.31 C-1.25 13.32 -1.25 12.33 -1.25 11.31 C-2.57 11.31 -3.89 11.31 -5.25 11.31 C-5.58 9.66 -5.91 8.01 -6.25 6.31 C-5.59 6.31 -4.93 6.31 -4.25 6.31 C-4.11 5.51 -3.96 4.7 -3.81 3.88 C-3.06 0.42 -3.06 0.42 0 0 Z " fill="#B9522E" transform="translate(127.25,538.6875)"/>
<path d="M0 0 C2 2 2 2 2.31 5.5 C2.16 7.23 2.16 7.23 2 9 C1.01 9.66 0.02 10.32 -1 11 C-1.33 10.01 -1.66 9.02 -2 8 C-2.66 9.32 -3.32 10.64 -4 12 C-8.75 11.25 -8.75 11.25 -11 9 C-11.82 5.87 -12.26 3.79 -11.25 0.69 C-8.14 -3.52 -4.2 -1.45 0 0 Z M0 3 C-0.33 3.66 -0.66 4.32 -1 5 C-0.01 6.48 -0.01 6.48 1 8 C1 6.35 1 4.7 1 3 C0.67 3 0.34 3 0 3 Z " fill="#CB6840" transform="translate(1029,12)"/>
<path d="M0 0 C0 0.66 0 1.32 0 2 C0.99 2.33 1.98 2.66 3 3 C3 3.66 3 4.32 3 5 C3.66 5.33 4.32 5.66 5 6 C4.12 10.75 4.12 10.75 3 13 C1.74 13.04 0.48 13.08 -0.81 13.12 C-1.52 13.15 -2.23 13.17 -2.96 13.2 C-5 13 -5 13 -8 11 C-9 7.62 -9 7.62 -9 4 C-5.9 0.55 -4.7 0 0 0 Z " fill="#4D828C" transform="translate(109,341)"/>
<path d="M0 0 C2.24 3.57 2.19 6.87 2 11 C1.34 11 0.68 11 0 11 C0 11.66 0 12.32 0 13 C-6.44 12.39 -6.44 12.39 -8.88 10.69 C-10.64 8.04 -11.09 6.04 -10.81 2.88 C-10 1 -10 1 -8.31 -0.31 C-5.13 -1.26 -3.15 -1.03 0 0 Z M-1 7 C-0.01 8.49 -0.01 8.49 1 10 C1 9.01 1 8.02 1 7 C0.34 7 -0.32 7 -1 7 Z M-4 10 C-3 12 -3 12 -3 12 Z " fill="#BA5631" transform="translate(1171,483)"/>
<path d="M0 0 C0.33 0.66 0.66 1.32 1 2 C1.62 2.06 2.24 2.12 2.88 2.19 C5 3 5 3 6.81 6.19 C8.03 10.1 8.05 12.1 7 16 C6.67 15.34 6.34 14.68 6 14 C5.01 14 4.02 14 3 14 C3.33 14.99 3.66 15.98 4 17 C3.67 17.99 3.34 18.98 3 20 C0.03 20.33 -2.94 20.66 -6 21 C-6 19 -6 19 -4 17 C-2.34 15.66 -0.68 14.32 1 13 C0.86 12.28 0.71 11.56 0.56 10.81 C0.04 8.21 -0.48 5.6 -1 3 C-5.95 2.67 -10.9 2.34 -16 2 C-16 1.67 -16 1.34 -16 1 C-8.08 0.5 -8.08 0.5 0 0 Z M5 6 C6 8 6 8 6 8 Z " fill="#DAE8E3" transform="translate(805,659)"/>
<path d="M0 0 C1.69 0.09 3.38 0.25 5.06 0.44 C6.44 0.59 6.44 0.59 7.85 0.75 C8.56 0.83 9.27 0.91 10 1 C9.77 3.61 9.52 6.21 9.25 8.81 C9.19 9.55 9.13 10.29 9.06 11.05 C8.47 16.55 8.47 16.55 5.92 19.01 C4.97 19.5 4.97 19.5 4 20 C3.34 19.67 2.68 19.34 2 19 C2.33 18.34 2.66 17.68 3 17 C2.01 16.67 1.02 16.34 0 16 C0.33 15.67 0.66 15.34 1 15 C1.31 9.83 0.58 5.85 -1 1 C-0.67 0.67 -0.34 0.34 0 0 Z M7 5 C6.01 5.5 6.01 5.5 5 6 C5 6.66 5 7.32 5 8 C5.99 8 6.98 8 8 8 C7.67 7.01 7.34 6.02 7 5 Z M4 15 C4.33 15.99 4.66 16.98 5 18 C5.33 17.01 5.66 16.02 6 15 C5.34 15 4.68 15 4 15 Z " fill="#C4E2E0" transform="translate(672,673)"/>
<path d="M0 0 C0 0.66 0 1.32 0 2 C0.66 2 1.32 2 2 2 C2.66 3.32 3.32 4.64 4 6 C3.01 7.49 3.01 7.49 2 9 C2 9.66 2 10.32 2 11 C2 11.66 2 12.32 2 13 C-0.69 13.75 -2.52 14.12 -5.25 13.44 C-7.8 11.34 -7.59 9.18 -8 6 C-8.66 5.67 -9.32 5.34 -10 5 C-9.34 5 -8.68 5 -8 5 C-7.88 4.36 -7.75 3.72 -7.62 3.06 C-7.42 2.38 -7.21 1.7 -7 1 C-4.54 -0.23 -2.72 -0.07 0 0 Z " fill="#46838F" transform="translate(1111,124)"/>
<path d="M0 0 C3.62 0.38 3.62 0.38 7 1 C7 1.66 7 2.32 7 3 C7.66 3.33 8.32 3.66 9 4 C7.33 5.67 5.67 7.33 4 9 C3.3 10.32 2.63 11.65 2 13 C1.67 12.67 1.34 12.34 1 12 C0.67 12.66 0.34 13.32 0 14 C0.33 14.33 0.66 14.66 1 15 C0.58 18.26 0.37 19.63 -2 22 C-3.65 22.71 -5.32 23.38 -7 24 C-6.54 22.6 -6.08 21.21 -5.62 19.81 C-5.22 18.57 -5.22 18.57 -4.8 17.3 C-4 15 -4 15 -2.81 12.44 C-1.99 9.98 -1.94 8.37 -2 5.81 C-2 2 -2 2 0 0 Z M4 5 C5 7 5 7 5 7 Z " fill="#9ECED2" transform="translate(582,658)"/>
<path d="M0 0 C3.34 3.34 4.28 6.67 5.12 11.25 C5.29 12.14 5.46 13.03 5.63 13.95 C5.75 14.63 5.88 15.3 6 16 C6.99 16.33 7.98 16.66 9 17 C9 17.33 9 17.66 9 18 C6.03 18 3.06 18 0 18 C-0.27 16.74 -0.54 15.48 -0.81 14.19 C-1.57 10.93 -1.57 10.93 -3.62 8.38 C-5 7 -5 7 -5.19 3.81 C-5.13 2.88 -5.06 1.96 -5 1 C-2.62 0.38 -2.62 0.38 0 0 Z M2 7 C3 11 3 11 3 11 Z " fill="#98C7C9" transform="translate(550,674)"/>
<path d="M0 0 C0.66 0.33 1.32 0.66 2 1 C1.01 1.33 0.02 1.66 -1 2 C-0.67 2.66 -0.34 3.32 0 4 C0.26 7.33 0.23 10.66 0.25 14 C0.27 14.93 0.29 15.86 0.31 16.81 C0.32 17.7 0.32 18.59 0.33 19.5 C0.34 20.31 0.35 21.13 0.36 21.97 C0.24 22.64 0.12 23.31 0 24 C-0.99 24.66 -1.98 25.32 -3 26 C-3 25.34 -3 24.68 -3 24 C-3.66 23.67 -4.32 23.34 -5 23 C-5.43 20.58 -5.71 18.32 -5.88 15.88 C-5.92 15.19 -5.97 14.51 -6.02 13.81 C-6.26 8.21 -5.55 5.26 -2 1 C-1.34 0.67 -0.68 0.34 0 0 Z " fill="#AFCDCF" transform="translate(723,662)"/>
<path d="M0 0 C2.48 0.99 2.48 0.99 5 2 C5 8.6 5 15.2 5 22 C4.67 22 4.34 22 4 22 C4 17.71 4 13.42 4 9 C2.33 14.02 2.76 18.9 4 24 C3.01 24 2.02 24 1 24 C-0.71 22.29 -0.37 19.96 -0.56 17.62 C-0.65 16.65 -0.73 15.67 -0.82 14.66 C-1.01 11.83 -1.07 9.36 -0.5 6.56 C0.13 3.78 0.13 3.78 0 0 Z M1 21 C2 23 2 23 2 23 Z " fill="#A8B7B4" transform="translate(778,664)"/>
<path d="M0 0 C1.15 0.1 2.3 0.2 3.49 0.31 C4.36 0.39 5.23 0.48 6.12 0.56 C6.46 3.53 6.78 6.5 7.12 9.56 C6.13 9.56 5.14 9.56 4.12 9.56 C3.38 8.74 2.64 7.91 1.88 7.06 C-0.7 4.25 -0.7 4.25 -4.38 4.06 C-7.97 4.58 -9.96 5.44 -12.88 7.56 C-12.54 6.24 -12.22 4.92 -11.88 3.56 C-12.53 3.23 -13.2 2.9 -13.88 2.56 C-13.54 1.9 -13.22 1.24 -12.88 0.56 C-8.46 -0.53 -4.5 -0.41 0 0 Z " fill="#9EC4C8" transform="translate(671.875,659.4375)"/>
<path d="M0 0 C0.66 0 1.32 0 2 0 C2.25 0.62 2.5 1.24 2.75 1.88 C4.21 4.35 5.38 4.95 8 6 C8.66 5.01 9.32 4.02 10 3 C10.66 3 11.32 3 12 3 C10.68 7.62 8.79 11.1 6 15 C4.19 14.94 4.19 14.94 2 14 C-0.46 9.52 -1.49 6.18 -1 1 C-0.67 0.67 -0.34 0.34 0 0 Z M6 8 C5.67 8.66 5.34 9.32 5 10 C5.99 9.67 6.98 9.34 8 9 C7.34 8.67 6.68 8.34 6 8 Z M4 11 C4 11.99 4 12.98 4 14 C4.66 13.67 5.32 13.34 6 13 C6 12.34 6 11.68 6 11 C5.34 11 4.68 11 4 11 Z " fill="#66959F" transform="translate(568,677)"/>
<path d="M0 0 C0 4.69 -1.44 6.42 -4.71 9.8 C-5.78 10.79 -6.86 11.77 -7.94 12.75 C-8.48 13.26 -9.01 13.76 -9.57 14.29 C-13.63 18 -13.63 18 -17 18 C-19.15 18.95 -19.15 18.95 -21 20 C-17.32 15.53 -13.44 11.31 -9.38 7.19 C-8.45 6.25 -7.53 5.32 -6.59 4.36 C-4.39 2.36 -2.72 1.1 0 0 Z " fill="#4BC3CD" transform="translate(774,240)"/>
<path d="M0 0 C1.29 0.23 1.29 0.23 2.6 0.47 C8.76 1.52 13.88 2.22 20 1 C20.66 1.33 21.32 1.66 22 2 C21.67 2.99 21.34 3.98 21 5 C16.51 7.08 11.89 7.78 7 7 C4.19 5.9 1.59 4.55 -1 3 C-0.67 2.01 -0.34 1.02 0 0 Z " fill="#D0EDE9" transform="translate(602,699)"/>
<path d="M0 0 C0.33 0 0.66 0 1 0 C1.61 4.82 2.05 9.49 1.93 14.34 C1.91 15.1 1.89 15.86 1.88 16.64 C1.83 18.16 1.78 19.68 1.7 21.2 C1.59 23.6 1.59 23.6 2 27 C3.85 29.05 3.85 29.05 6 30 C3.36 30 0.72 30 -2 30 C-2.33 28.35 -2.66 26.7 -3 25 C-2.67 25 -2.34 25 -2 25 C-1.34 16.75 -0.68 8.5 0 0 Z " fill="#8BD2D6" transform="translate(481,664)"/>
<path d="M0 0 C0.99 0 1.98 0 3 0 C5.28 24.16 5.28 24.16 3 31 C2.34 31 1.68 31 1 31 C1 30.34 1 29.68 1 29 C0.01 28.67 -0.98 28.34 -2 28 C-2 24.86 -1.67 22.07 -1 19 C-0.34 18.67 0.32 18.34 1 18 C1.21 8.95 1.21 8.95 0 0 Z " fill="#458FA1" transform="translate(689,663)"/>
<path d="M0 0 C6.93 0 13.86 0 21 0 C21.33 2.31 21.66 4.62 22 7 C22.99 7.33 23.98 7.66 25 8 C24.01 8.33 23.02 8.66 22 9 C21.67 9.66 21.34 10.32 21 11 C20.34 8.69 19.68 6.38 19 4 C18.14 4.02 17.29 4.05 16.4 4.07 C10.2 4.17 4.84 4.17 -1 2 C-0.67 1.34 -0.34 0.68 0 0 Z " fill="#7DB6BB" transform="translate(477,660)"/>
<path d="M0 0 C2 2 2 2 2.16 5.92 C2.14 7.53 2.1 9.14 2.06 10.75 C1.95 15.97 1.93 20.85 3 26 C2.34 26 1.68 26 1 26 C1 25.34 1 24.68 1 24 C0.01 23.67 -0.98 23.34 -2 23 C-3.43 20.15 -3.13 17.68 -3.12 14.5 C-3.13 13.33 -3.13 12.17 -3.13 10.97 C-3 8 -3 8 -2 6 C-2.66 5.67 -3.32 5.34 -4 5 C-2.25 1.12 -2.25 1.12 0 0 Z M-1 6 C-1.33 10.29 -1.66 14.58 -2 19 C-1.01 19.5 -1.01 19.5 0 20 C0 15.38 0 10.76 0 6 C-0.33 6 -0.66 6 -1 6 Z " fill="#85A9AE" transform="translate(761,664)"/>
<path d="M0 0 C1.23 0.15 1.23 0.15 2.48 0.31 C3.42 0.43 3.42 0.43 4.38 0.56 C4.38 1.55 4.38 2.54 4.38 3.56 C3.06 3.89 1.74 4.22 0.38 4.56 C1.04 4.89 1.69 5.22 2.38 5.56 C1.9 5.98 1.43 6.39 0.94 6.81 C-0.86 8.83 -1.1 9.95 -1.62 12.56 C-2.28 14.57 -2.94 16.57 -3.62 18.56 C-5.04 15.92 -6 13.49 -6.62 10.56 C-5.96 10.56 -5.31 10.56 -4.62 10.56 C-4.84 8.64 -4.84 8.64 -5.06 6.69 C-5.14 5.97 -5.22 5.25 -5.31 4.51 C-5.54 2.49 -5.54 2.49 -6.62 0.56 C-4.1 -0.7 -2.77 -0.36 0 0 Z " fill="#C7E4E2" transform="translate(469.625,659.4375)"/>
<path d="M0 0 C0.99 0 1.98 0 3 0 C3 0.66 3 1.32 3 2 C3.91 1.79 4.82 1.59 5.75 1.38 C9.11 0.99 10.24 1.2 13 3 C11.91 2.98 10.81 2.96 9.69 2.94 C6.06 2.81 6.06 2.81 3 4 C3.21 5.28 3.41 6.56 3.62 7.88 C3.98 10.05 3.98 10.05 4 12 C2 14 2 14 -1.12 14.12 C-2.55 14.06 -2.55 14.06 -4 14 C-4 10.14 -3.49 8.43 -2 5 C-1.67 4.01 -1.34 3.02 -1 2 C-0.67 1.34 -0.34 0.68 0 0 Z M1 8 C1 8.66 1 9.32 1 10 C0.34 10 -0.32 10 -1 10 C-1 10.99 -1 11.98 -1 13 C-0.01 12.67 0.98 12.34 2 12 C1.67 10.68 1.34 9.36 1 8 Z " fill="#9CC4C6" transform="translate(532,680)"/>
<path d="M0 0 C2.48 0.5 2.48 0.5 5 1 C5.91 3.74 6.12 5.31 6.1 8.12 C6.09 8.91 6.09 9.7 6.09 10.52 C6.08 11.34 6.07 12.16 6.06 13 C6.06 13.82 6.05 14.64 6.05 15.48 C6.04 17.01 6.03 18.53 6.02 20.05 C6 21.7 6 23.35 6 25 C5.01 25.66 4.02 26.32 3 27 C1.91 20.69 1.96 14.62 2.13 8.23 C2.16 6.15 2.09 4.08 2 2 C1.34 1.34 0.68 0.68 0 0 Z " fill="#E4F4EE" transform="translate(789,662)"/>
<path d="M0 0 C0.66 0.33 1.32 0.66 2 1 C2 1.99 2 2.98 2 4 C1.34 4 0.68 4 0 4 C-0.21 4.72 -0.41 5.44 -0.62 6.19 C-2.4 9.83 -4.82 11.54 -8 14 C-9.02 14.98 -10.03 15.97 -11 17 C-11.66 16.67 -12.32 16.34 -13 16 C-12.42 12.83 -11.58 11.22 -9.28 8.98 C-8.74 8.46 -8.2 7.93 -7.65 7.38 C-7.08 6.84 -6.52 6.31 -5.94 5.75 C-5.37 5.2 -4.8 4.64 -4.22 4.07 C-2.82 2.71 -1.41 1.35 0 0 Z " fill="#6CC7CF" transform="translate(732,284)"/>
<path d="M0 0 C1.32 0 2.64 0 4 0 C6.03 3.35 6.22 5.87 6.12 9.75 C6.11 10.73 6.09 11.72 6.07 12.73 C6.04 13.86 6.04 13.86 6 15 C5.67 15 5.34 15 5 15 C4.67 11.7 4.34 8.4 4 5 C2.34 6.66 2.64 8.78 2.44 11.06 C2.31 12.44 2.31 12.44 2.18 13.85 C2.12 14.56 2.06 15.27 2 16 C1.01 16.33 0.02 16.66 -1 17 C-2.07 13.64 -1.97 10.87 -1.62 7.38 C-1.53 6.41 -1.44 5.45 -1.35 4.46 C-1 2 -1 2 0 0 Z " fill="#D2EAE7" transform="translate(744,666)"/>
<path d="M0 0 C0.66 0.33 1.32 0.66 2 1 C1.31 1.66 0.63 2.33 -0.08 3.01 C-1.43 4.34 -1.43 4.34 -2.81 5.69 C-3.71 6.56 -4.6 7.43 -5.52 8.32 C-7.81 10.79 -9.31 13.11 -11 16 C-12.19 17.31 -13.41 18.59 -14.69 19.81 C-15.31 20.42 -15.93 21.02 -16.57 21.64 C-17.04 22.09 -17.52 22.54 -18 23 C-17.34 23 -16.68 23 -16 23 C-17.29 25.88 -18.66 27.87 -21 30 C-21.66 29.67 -22.32 29.34 -23 29 C-23 28.67 -23 28.34 -23 28 C-23.66 27.67 -24.32 27.34 -25 27 C-24.59 26.6 -24.18 26.2 -23.76 25.79 C-21.9 23.97 -20.04 22.14 -18.19 20.31 C-17.54 19.69 -16.9 19.06 -16.24 18.42 C-12.91 15.12 -10.32 12.1 -8 8 C-6.65 6.52 -5.25 5.08 -3.81 3.69 C-3.1 2.99 -2.38 2.29 -1.64 1.57 C-1.1 1.05 -0.56 0.54 0 0 Z " fill="#1D969F" transform="translate(796,214)"/>
<path d="M0 0 C5.39 -0.27 8.52 -0.36 13 3 C12.91 4.46 12.8 5.92 12.69 7.38 C12.63 8.19 12.57 9 12.51 9.84 C12 12 12 12 9 14 C9 13.01 9 12.02 9 11 C7.35 11.66 5.7 12.32 4 13 C4.66 12.01 5.32 11.02 6 10 C6.21 6.59 6.08 4.25 5 1 C3.35 1 1.7 1 0 1 C0 0.67 0 0.34 0 0 Z " fill="#8FA6A7" transform="translate(696,661)"/>
<path d="M0 0 C0.66 0 1.32 0 2 0 C2.33 5.28 2.66 10.56 3 16 C-2 17 -2 17 -4 16 C-4.62 13.94 -4.62 13.94 -5 12 C-4.01 11.67 -3.02 11.34 -2 11 C-1.94 10.37 -1.88 9.75 -1.82 9.1 C-1.73 8.28 -1.65 7.47 -1.56 6.62 C-1.48 5.81 -1.4 5 -1.32 4.16 C-1 2 -1 2 0 0 Z M0 13 C0.33 13.99 0.66 14.98 1 16 C1.33 15.01 1.66 14.02 2 13 C1.34 13 0.68 13 0 13 Z " fill="#DFF0EB" transform="translate(497,677)"/>
<path d="M0 0 C4.85 -0.39 8.14 -0.44 12.56 1.81 C13.37 2.53 14.17 3.26 15 4 C15 4.99 15 5.98 15 7 C13 8.69 13 8.69 11 10 C10.69 9.22 10.38 8.43 10.06 7.62 C7.06 3.81 3.65 3.65 -1 3 C-0.67 2.01 -0.34 1.02 0 0 Z " fill="#8EB8B9" transform="translate(731,660)"/>
<path d="M0 0 C0.33 0 0.66 0 1 0 C1.25 2.06 1.47 4.12 1.69 6.19 C1.82 7.34 1.94 8.48 2.07 9.67 C1.99 13.38 1.17 15.04 -1 18 C-1.99 17.01 -2.98 16.02 -4 15 C-4 16.65 -4 18.3 -4 20 C-5.65 20 -7.3 20 -9 20 C-7.25 14.25 -7.25 14.25 -5 12 C-2.38 11.38 -2.38 11.38 0 11 C-0.33 10.34 -0.66 9.68 -1 9 C-1.19 6.31 -1.09 3.7 -1 1 C-0.67 0.67 -0.34 0.34 0 0 Z " fill="#8BB3B9" transform="translate(747,671)"/>
<path d="M0 0 C-0.99 0.33 -1.98 0.66 -3 1 C-3.33 1.99 -3.66 2.98 -4 4 C-4.66 4 -5.32 4 -6 4 C-6 4.66 -6 5.32 -6 6 C-6.66 6 -7.32 6 -8 6 C-8.66 8.97 -9.32 11.94 -10 15 C-10.33 15 -10.66 15 -11 15 C-12.35 4.7 -12.35 4.7 -11 2 C-10.34 2 -9.68 2 -9 2 C-8.67 1.34 -8.34 0.68 -8 0 C-5 -1.14 -3.02 -0.97 0 0 Z " fill="#E7F6F0" transform="translate(608,664)"/>
<path d="M0 0 C2.96 -0.05 5.92 -0.09 8.88 -0.12 C9.72 -0.14 10.56 -0.16 11.43 -0.18 C12.23 -0.18 13.04 -0.19 13.87 -0.2 C14.98 -0.21 14.98 -0.21 16.12 -0.23 C18 0 18 0 20 2 C19.67 2.66 19.34 3.32 19 4 C13.06 4 7.12 4 1 4 C0.67 2.68 0.34 1.36 0 0 Z " fill="#E58260" transform="translate(1046,74)"/>
<path d="M0 0 C0.66 0.33 1.32 0.66 2 1 C0.16 4.15 -1.79 7.09 -4 10 C-4.33 10.66 -4.66 11.32 -5 12 C-5.91 12.27 -6.82 12.54 -7.75 12.81 C-11.52 14.19 -13.35 16.04 -16 19 C-16.66 18.67 -17.32 18.34 -18 18 C-16.88 16.83 -15.75 15.66 -14.62 14.5 C-14 13.85 -13.37 13.2 -12.73 12.53 C-11 11 -11 11 -9 11 C-9 10.34 -9 9.68 -9 9 C-8.34 9 -7.68 9 -7 9 C-7 8.34 -7 7.68 -7 7 C-6.34 7 -5.68 7 -5 7 C-5 6.34 -5 5.68 -5 5 C-4.34 5 -3.68 5 -3 5 C-2.69 4.36 -2.38 3.72 -2.06 3.06 C-1 1 -1 1 0 0 Z " fill="#A8DADB" transform="translate(864,150)"/>
<path d="M0 0 C0.99 0 1.98 0 3 0 C6 4.22 6 4.22 6 7 C9.96 7 13.92 7 18 7 C18 7.33 18 7.66 18 8 C5.05 9.91 5.05 9.91 0 6.75 C-1 5 -1 5 -0.69 2.31 C-0.46 1.55 -0.23 0.79 0 0 Z " fill="#BBD1CF" transform="translate(723,684)"/>
<path d="M0 0 C3 1 3 1 5 4 C5.99 3.34 6.98 2.68 8 2 C8.66 5.3 9.32 8.6 10 12 C9.01 12.33 8.02 12.66 7 13 C3.51 10.67 3.92 10.69 3 7 C1.71 4.97 0.38 2.96 -1 1 C-0.67 0.67 -0.34 0.34 0 0 Z " fill="#73ADB5" transform="translate(557,660)"/>
<path d="M0 0 C0 0.66 0 1.32 0 2 C1.32 2.66 2.64 3.32 4 4 C-1.94 4 -7.88 4 -14 4 C-14 3.34 -14 2.68 -14 2 C-9.07 0.03 -5.22 -0.18 0 0 Z " fill="#899A99" transform="translate(1048,716)"/>
<path d="M0 0 C0.66 0.33 1.32 0.66 2 1 C2 2.32 2 3.64 2 5 C1.01 5.66 0.02 6.32 -1 7 C-0.34 7 0.32 7 1 7 C0.34 8.65 -0.32 10.3 -1 12 C-1.99 11.01 -2.98 10.02 -4 9 C-4.99 9.5 -4.99 9.5 -6 10 C-4.79 5.57 -3.48 3.02 0 0 Z " fill="#BEE2E1" transform="translate(609,671)"/>
<path d="M0 0 C0.33 0.66 0.66 1.32 1 2 C1.63 1.98 2.25 1.95 2.9 1.93 C3.72 1.91 4.53 1.89 5.38 1.88 C6.19 1.85 7 1.83 7.84 1.8 C10 2 10 2 12 4 C11.34 4 10.68 4 10 4 C10 5.98 10 7.96 10 10 C9.67 10 9.34 10 9 10 C8.67 8.35 8.34 6.7 8 5 C6.68 4.67 5.36 4.34 4 4 C4.33 4.99 4.66 5.98 5 7 C4.01 7.33 3.02 7.66 2 8 C2 7.01 2 6.02 2 5 C1.01 4.67 0.02 4.34 -1 4 C-0.67 2.68 -0.34 1.36 0 0 Z " fill="#7DA4AA" transform="translate(442,658)"/>
<path d="M0 0 C-0.39 3.53 -1.92 5.07 -4.46 7.43 C-7.63 10.66 -10.27 14.39 -13 18 C-13.33 17.01 -13.66 16.02 -14 15 C-13.24 14.32 -12.47 13.64 -11.69 12.94 C-8.79 9.77 -7.67 6.91 -6 3 C-2.81 0 -2.81 0 0 0 Z " fill="#A0E4E4" transform="translate(684,344)"/>
<path d="M0 0 C4.83 0.41 6.83 2.46 10 6 C9.67 6.66 9.34 7.32 9 8 C7.68 7.01 6.36 6.02 5 5 C6.98 6.65 8.96 8.3 11 10 C10.67 10.99 10.34 11.98 10 13 C4.66 10.63 3.2 7.09 1 2 C0.67 1.34 0.34 0.68 0 0 Z " fill="#54919D" transform="translate(502,670)"/>
<path d="M0 0 C-2 3 -2 3 -3.7 3.71 C-6.79 4.1 -9.66 3.84 -12.75 3.56 C-13.92 3.46 -15.09 3.36 -16.3 3.25 C-17.19 3.17 -18.08 3.09 -19 3 C-19.33 2.01 -19.66 1.02 -20 0 C-18.02 0 -16.04 0 -14 0 C-14 0.66 -14 1.32 -14 2 C-11.69 2 -9.38 2 -7 2 C-6.67 1.34 -6.34 0.68 -6 0 C-3 -1 -3 -1 0 0 Z " fill="#D8EEE9" transform="translate(780,689)"/>
<path d="M0 0 C0.66 0 1.32 0 2 0 C0.68 4.62 -1.21 8.1 -4 12 C-5.32 11.67 -6.64 11.34 -8 11 C-7.67 9.02 -7.34 7.04 -7 5 C-6.67 5.66 -6.34 6.32 -6 7 C-5.01 6.67 -4.02 6.34 -3 6 C-3.66 5.01 -4.32 4.02 -5 3 C-4.01 3 -3.02 3 -2 3 C-1.34 2.01 -0.68 1.02 0 0 Z M-6 8 C-6 8.99 -6 9.98 -6 11 C-5.34 10.67 -4.68 10.34 -4 10 C-4 9.34 -4 8.68 -4 8 C-4.66 8 -5.32 8 -6 8 Z " fill="#C6E2DF" transform="translate(578,680)"/>
<path d="M0 0 C1.27 3.81 0.55 5.36 -1 9 C-1.99 9.66 -2.98 10.32 -4 11 C-4.99 9.35 -5.98 7.7 -7 6 C-3.62 0 -3.62 0 0 0 Z M-5 3 C-4.67 3.99 -4.34 4.98 -4 6 C-4 5.01 -4 4.02 -4 3 C-4.33 3 -4.66 3 -5 3 Z " fill="#90B0B3" transform="translate(540,671)"/>
<path d="M0 0 C2.6 3.89 4.24 7.14 3.62 11.88 C3.42 12.58 3.21 13.28 3 14 C1.35 14 -0.3 14 -2 14 C-1.86 11.85 -1.71 9.71 -1.56 7.56 C-1.48 6.37 -1.4 5.17 -1.32 3.94 C-1 1 -1 1 0 0 Z " fill="#D3EAE7" transform="translate(496,663)"/>
<path d="M0 0 C1.35 0.15 1.35 0.15 2.73 0.31 C3.42 0.39 4.1 0.48 4.81 0.56 C4.81 1.55 4.81 2.54 4.81 3.56 C3.21 3.78 1.61 3.99 0 4.19 C-0.89 4.3 -1.79 4.42 -2.71 4.54 C-5.19 4.56 -5.19 4.56 -8.19 2.56 C-8.19 1.9 -8.19 1.24 -8.19 0.56 C-4.99 -0.5 -3.3 -0.39 0 0 Z " fill="#8DB9BF" transform="translate(761.1875,659.4375)"/>
<path d="M0 0 C0.66 0.33 1.32 0.66 2 1 C2 16 2 16 1.94 19.94 C1.93 22.79 2.09 25.27 3 28 C1.68 27.67 0.36 27.34 -1 27 C-0.67 18.09 -0.34 9.18 0 0 Z " fill="#E7F6F0" transform="translate(693,664)"/>
<path d="M0 0 C0.33 0 0.66 0 1 0 C1 1.65 1 3.3 1 5 C1.66 5 2.32 5 3 5 C2.25 9.75 2.25 9.75 0 12 C-1.65 12.71 -3.32 13.38 -5 14 C-3.46 9.28 -1.92 4.58 0 0 Z " fill="#C3E2E0" transform="translate(580,668)"/>
<path d="M0 0 C1.32 0.66 2.64 1.32 4 2 C3.34 2 2.68 2 2 2 C2.33 3.32 2.66 4.64 3 6 C2.46 5.79 1.93 5.59 1.38 5.38 C-1.86 4.86 -3.98 5.84 -7 7 C-7.99 7.33 -8.98 7.66 -10 8 C-9 5 -9 5 -6.12 3.44 C-5.09 2.96 -4.06 2.49 -3 2 C-2.01 1.34 -1.02 0.68 0 0 Z " fill="#BEEAE8" transform="translate(610,657)"/>
<path d="M0 0 C0.99 0.33 1.98 0.66 3 1 C4 4 4 4 3 7 C-1.46 7.5 -1.46 7.5 -6 8 C-6 6 -6 6 -4 4 C-2.67 2.67 -1.33 1.33 0 0 Z " fill="#96C0C1" transform="translate(805,672)"/>
<path d="M0 0 C0.66 0.33 1.32 0.66 2 1 C-2.95 5.95 -7.9 10.9 -13 16 C-13.66 15.67 -14.32 15.34 -15 15 C-14.37 14.4 -13.75 13.79 -13.1 13.17 C-12.28 12.37 -11.47 11.57 -10.62 10.75 C-9.41 9.57 -9.41 9.57 -8.16 8.36 C-6.23 6.25 -5.2 4.56 -4 2 C-2 0.69 -2 0.69 0 0 Z " fill="#C2D9D5" transform="translate(816,196)"/>
<path d="M0 0 C0.66 0.33 1.32 0.66 2 1 C1.01 1.33 0.02 1.66 -1 2 C-0.67 2.66 -0.34 3.32 0 4 C0.08 5.52 0.11 7.05 0.1 8.57 C0.09 9.91 0.09 9.91 0.09 11.29 C0.08 12.22 0.07 13.16 0.06 14.12 C0.06 15.07 0.05 16.01 0.05 16.99 C0.04 19.33 0.02 21.66 0 24 C-0.66 24.33 -1.32 24.66 -2 25 C-1.97 23.23 -1.97 23.23 -1.93 21.42 C-1.91 19.86 -1.89 18.31 -1.88 16.75 C-1.86 15.97 -1.84 15.2 -1.82 14.39 C-1.74 8.92 -1.74 8.92 -4 4 C-2.68 2.68 -1.36 1.36 0 0 Z " fill="#2D5660" transform="translate(723,662)"/>
<path d="M0 0 C2.31 0.33 4.62 0.66 7 1 C7.66 2.98 8.32 4.96 9 7 C8.01 7.33 7.02 7.66 6 8 C2.81 5.75 2.81 5.75 0 3 C0 2.01 0 1.02 0 0 Z " fill="#497278" transform="translate(396,371)"/>
<path d="M0 0 C2.12 0.94 2.12 0.94 4 2 C2.35 2.33 0.7 2.66 -1 3 C-1.33 2.34 -1.66 1.68 -2 1 C-1.34 0.67 -0.68 0.34 0 0 Z M-4 1 C-3.34 1.33 -2.68 1.66 -2 2 C-2 2.66 -2 3.32 -2 4 C-3.97 5.51 -3.97 5.51 -6.5 7.12 C-7.34 7.66 -8.17 8.2 -9.03 8.76 C-9.68 9.17 -10.33 9.58 -11 10 C-11 7 -11 7 -9.47 5.39 C-8.49 4.61 -8.49 4.61 -7.5 3.81 C-6.85 3.28 -6.2 2.75 -5.53 2.21 C-5.03 1.81 -4.52 1.41 -4 1 Z " fill="#71A7AF" transform="translate(109,294)"/>
<path d="M0 0 C4.88 2.75 4.88 2.75 6 5 C6.99 5.33 7.98 5.66 9 6 C8.67 6.66 8.34 7.32 8 8 C4.69 7.81 4.69 7.81 1 7 C-0.94 4.44 -0.94 4.44 -2 2 C-1.34 2 -0.68 2 0 2 C0 1.34 0 0.68 0 0 Z M1 4 C2 6 2 6 2 6 Z " fill="#8FC1C2" transform="translate(705,685)"/>
<path d="M0 0 C0.66 0 1.32 0 2 0 C2.66 5.28 3.32 10.56 4 16 C3.34 16 2.68 16 2 16 C0.11 10.94 -1.55 6.49 -1 1 C-0.67 0.67 -0.34 0.34 0 0 Z " fill="#E7F6F0" transform="translate(595,679)"/>
<path d="M0 0 C0.33 0 0.66 0 1 0 C1 2.64 1 5.28 1 8 C0.01 8.33 -0.98 8.66 -2 9 C-2 10.98 -2 12.96 -2 15 C-2.99 15.5 -2.99 15.5 -4 16 C-3.66 10.01 -3.18 5.25 0 0 Z " fill="#8CE5E7" transform="translate(595,670)"/>
<path d="M0 0 C3.38 1.13 4.42 2.25 6.75 4.88 C7.38 5.57 8.02 6.27 8.67 6.99 C9.11 7.65 9.55 8.32 10 9 C9.67 9.99 9.34 10.98 9 12 C5 9.03 2.08 5.87 -1 2 C-0.67 1.34 -0.34 0.68 0 0 Z " fill="#6E9DA3" transform="translate(560,474)"/>
<path d="M0 0 C0.33 0.66 0.66 1.32 1 2 C1.66 2 2.32 2 3 2 C3.33 1.34 3.66 0.68 4 0 C4.99 0.33 5.98 0.66 7 1 C7 1.66 7 2.32 7 3 C8.98 3 10.96 3 13 3 C13 3.66 13 4.32 13 5 C13.66 5.33 14.32 5.66 15 6 C12.71 5.75 10.42 5.47 8.12 5.19 C6.85 5.04 5.57 4.89 4.26 4.73 C1 4 1 4 -1 1 C-0.67 0.67 -0.34 0.34 0 0 Z " fill="#D2EDEA" transform="translate(657,688)"/>
<path d="M0 0 C6.62 -0.12 6.62 -0.12 10 1 C9.34 2.98 8.68 4.96 8 7 C7.01 6.34 6.02 5.68 5 5 C4.34 5 3.68 5 3 5 C3 4.34 3 3.68 3 3 C2.34 3 1.68 3 1 3 C0.67 2.01 0.34 1.02 0 0 Z " fill="#A5C2C3" transform="translate(514,660)"/>
<path d="M0 0 C2.72 0.38 3.84 0.84 5.81 2.81 C7 5 7 5 6.69 7.25 C6.46 7.83 6.23 8.4 6 9 C2.49 7.15 0.25 5.88 -1 2 C-0.67 1.34 -0.34 0.68 0 0 Z " fill="#809EA1" transform="translate(653,681)"/>
<path d="M0 0 C0.33 0 0.66 0 1 0 C1.1 1.01 1.21 2.02 1.31 3.06 C2.15 7.88 3.82 11.63 6 16 C2.98 14.96 2.02 14.03 0.25 11.31 C-1.14 7.63 -1.31 4.91 -1 1 C-0.67 0.67 -0.34 0.34 0 0 Z " fill="#E2F2ED" transform="translate(650,673)"/>
<path d="M0 0 C2.74 2.74 3.21 5.25 4 9 C3.01 10.49 3.01 10.49 2 12 C1.67 9.36 1.34 6.72 1 4 C0.34 4 -0.32 4 -1 4 C-1.33 5.65 -1.66 7.3 -2 9 C-2.33 8.34 -2.66 7.68 -3 7 C-3.66 6.67 -4.32 6.34 -5 6 C-4.01 5.67 -3.02 5.34 -2 5 C-1.34 3.02 -1.34 3.02 -1 1 C-0.67 0.67 -0.34 0.34 0 0 Z " fill="#E2F2ED" transform="translate(569,672)"/>
<path d="M0 0 C1.46 0.28 2.92 0.58 4.38 0.88 C5.19 1.04 6 1.2 6.84 1.37 C9 2 9 2 11 4 C4.67 4 -1.67 4 -8 4 C-6 2 -6 2 -2.88 1.88 C-1.93 1.92 -0.98 1.96 0 2 C0 1.34 0 0.68 0 0 Z " fill="#752007" transform="translate(1078,664)"/>
<path d="M0 0 C0.33 0.66 0.66 1.32 1 2 C-0.08 3.28 -1.16 4.54 -2.25 5.81 C-2.85 6.52 -3.46 7.23 -4.08 7.96 C-5.92 9.92 -7.8 11.46 -10 13 C-9.69 9.4 -9.01 8.01 -6.62 5.19 C-4 3 -4 3 -1 3 C-0.67 2.01 -0.34 1.02 0 0 Z " fill="#95C4C9" transform="translate(854,174)"/>
<path d="M0 0 C3.63 0 7.26 0 11 0 C10.67 1.32 10.34 2.64 10 4 C7.81 4.81 7.81 4.81 5 5 C2.19 2.56 2.19 2.56 0 0 Z " fill="#58838A" transform="translate(997,0)"/>
<path d="M0 0 C0.88 0.19 1.77 0.39 2.68 0.59 C3.34 0.75 4 0.9 4.69 1.06 C4.69 1.39 4.69 1.72 4.69 2.06 C2.42 2.23 0.15 2.4 -2.12 2.56 C-4.02 2.7 -4.02 2.7 -5.96 2.84 C-8.07 2.98 -10.19 3.06 -12.31 3.06 C-10.31 0.06 -10.31 0.06 -8.02 -0.68 C-5.09 -0.96 -2.86 -0.65 0 0 Z " fill="#5AC4CC" transform="translate(260.3125,1.9375)"/>
<path d="M0 0 C0.66 0 1.32 0 2 0 C2 0.99 2 1.98 2 3 C1.34 3 0.68 3 0 3 C0 2.01 0 1.02 0 0 Z M-2 3 C-1.34 3 -0.68 3 0 3 C0.04 5 0.04 7 0 9 C-0.33 9.33 -0.66 9.66 -1 10 C-1.37 12.33 -1.7 14.66 -2 17 C-4.21 13.68 -4.36 12.84 -4 9 C-3.39 6.98 -2.74 4.98 -2 3 Z " fill="#E59C6D" transform="translate(1061,678)"/>
<path d="M0 0 C2.31 0.33 4.62 0.66 7 1 C7.66 2.65 8.32 4.3 9 6 C8.34 6.66 7.68 7.32 7 8 C5.83 7.05 4.66 6.09 3.5 5.12 C2.85 4.59 2.2 4.06 1.53 3.51 C1.03 3.01 0.52 2.51 0 2 C0 1.34 0 0.68 0 0 Z " fill="#73B5BF" transform="translate(694,675)"/>
<path d="M0 0 C2.89 2.41 3.61 4.4 4.31 8.06 C4.49 8.94 4.68 9.82 4.86 10.72 C4.91 11.47 4.95 12.23 5 13 C4.34 13.66 3.68 14.32 3 15 C2.8 14.31 2.59 13.63 2.38 12.92 C2.11 12.02 1.84 11.12 1.56 10.19 C1.16 8.85 1.16 8.85 0.75 7.48 C0.2 5.65 -0.39 3.82 -1 2 C-0.67 1.34 -0.34 0.68 0 0 Z " fill="#32636F" transform="translate(451,670)"/>
<path d="M0 0 C5.94 0 11.88 0 18 0 C18 0.99 18 1.98 18 3 C11.64 3.2 6.15 2.63 0 1 C0 0.67 0 0.34 0 0 Z " fill="#2D939D" transform="translate(786,661)"/>
<path d="M0 0 C2.15 0.45 4.29 0.91 6.44 1.38 C8.23 1.76 8.23 1.76 10.06 2.15 C11.03 2.43 12 2.71 13 3 C13.33 3.66 13.66 4.32 14 5 C12.33 5.04 10.67 5.04 9 5 C8.67 4.67 8.34 4.34 8 4 C5.65 3.76 3.29 3.59 0.94 3.44 C-0.35 3.35 -1.64 3.27 -2.97 3.18 C-4.47 3.09 -4.47 3.09 -6 3 C-6 2.67 -6 2.34 -6 2 C-4.02 2 -2.04 2 0 2 C0 1.34 0 0.68 0 0 Z " fill="#E7F6F0" transform="translate(1054,26)"/>
<path d="M0 0 C-0.04 0.95 -0.08 1.9 -0.12 2.88 C-0.35 6.1 -0.35 6.1 2 8 C-0.31 8 -2.62 8 -5 8 C-5 4 -5 4 -3.06 1.75 C-1 0 -1 0 0 0 Z " fill="#A6CACD" transform="translate(796,686)"/>
<path d="M0 0 C0 3.2 -0.34 4.34 -2 7 C-3.94 8.81 -3.94 8.81 -6 10 C-6.99 9.67 -7.98 9.34 -9 9 C-6.21 5.51 -3.75 2.5 0 0 Z " fill="#B6CDC9" transform="translate(774,240)"/>
<path d="M0 0 C2.13 0.4 2.13 0.4 4 1 C3.53 1.36 3.06 1.73 2.57 2.1 C-1.47 5.37 -4 8.07 -6 13 C-6.69 11.31 -6.69 11.31 -7 9 C-5.29 5.4 -3.14 2.47 0 0 Z " fill="#E9946D" transform="translate(187,677)"/>
<path d="M0 0 C0.33 0.66 0.66 1.32 1 2 C1.66 2.33 2.32 2.66 3 3 C1.35 4.32 -0.3 5.64 -2 7 C-3.98 6.01 -5.96 5.02 -8 4 C-2 0 -2 0 0 0 Z M-3 3 C-3 3.66 -3 4.32 -3 5 C-2.34 4.67 -1.68 4.34 -1 4 C-1.66 3.67 -2.32 3.34 -3 3 Z " fill="#D7EBE7" transform="translate(705,672)"/>
<path d="M0 0 C1.98 0 3.96 0 6 0 C6 0.66 6 1.32 6 2 C7.98 2 9.96 2 12 2 C12 2.33 12 2.66 12 3 C11.39 3.12 10.77 3.24 10.14 3.37 C9.33 3.53 8.52 3.7 7.69 3.88 C6.89 4.04 6.09 4.2 5.26 4.37 C2.75 4.94 2.75 4.94 0 7 C0.33 5.68 0.66 4.36 1 3 C0.34 2.67 -0.32 2.34 -1 2 C-0.67 1.34 -0.34 0.68 0 0 Z " fill="#E1F2ED" transform="translate(659,660)"/>
<path d="M0 0 C0.74 0.25 1.49 0.5 2.25 0.75 C1.26 1.08 0.27 1.41 -0.75 1.75 C-1.43 3.07 -2.1 4.41 -2.75 5.75 C-3.74 6.41 -4.73 7.07 -5.75 7.75 C-6.5 6 -6.5 6 -6.75 3.75 C-4.63 0.73 -3.77 -0.34 0 0 Z " fill="#5BC6CE" transform="translate(742.75,274.25)"/>
<path d="M0 0 C0.99 0 1.98 0 3 0 C3 0.66 3 1.32 3 2 C3.91 1.79 4.82 1.59 5.75 1.38 C9.11 0.99 10.24 1.2 13 3 C11.95 2.98 10.9 2.96 9.81 2.94 C6.66 2.99 4.01 3.11 1 4 C0.67 4.66 0.34 5.32 0 6 C-1.12 2.25 -1.12 2.25 0 0 Z " fill="#CAE8E6" transform="translate(532,680)"/>
<path d="M0 0 C0.99 0 1.98 0 3 0 C4.25 6.62 4.25 6.62 2 10 C2 9.34 2 8.68 2 8 C1.01 8 0.02 8 -1 8 C-0.67 5.36 -0.34 2.72 0 0 Z " fill="#79ACB1" transform="translate(809,665)"/>
<path d="M0 0 C1.23 0.15 1.23 0.15 2.48 0.31 C3.42 0.43 3.42 0.43 4.38 0.56 C4.38 1.55 4.38 2.54 4.38 3.56 C2.92 3.64 1.46 3.7 0 3.75 C-0.81 3.78 -1.62 3.82 -2.46 3.86 C-3.18 3.76 -3.89 3.66 -4.62 3.56 C-5.29 2.57 -5.94 1.58 -6.62 0.56 C-4.1 -0.7 -2.77 -0.36 0 0 Z " fill="#88B6BB" transform="translate(469.625,659.4375)"/>
<path d="M0 0 C0.33 0 0.66 0 1 0 C1 1.65 1 3.3 1 5 C1.66 5 2.32 5 3 5 C4.06 6.81 4.06 6.81 5 9 C4.67 9.99 4.34 10.98 4 12 C3.34 12 2.68 12 2 12 C2 11.34 2 10.68 2 10 C1.01 9.67 0.02 9.34 -1 9 C-1 5.89 -0.54 3.06 0 0 Z " fill="#8FADAF" transform="translate(688,682)"/>
<path d="M0 0 C0.33 0 0.66 0 1 0 C1.2 1.73 1.38 3.46 1.56 5.19 C1.67 6.15 1.77 7.11 1.88 8.11 C2 10.94 1.68 13.25 1 16 C0.67 16 0.34 16 0 16 C-1.31 11.1 -1.32 6.04 -1 1 C-0.67 0.67 -0.34 0.34 0 0 Z " fill="#CAE2E1" transform="translate(689,671)"/>
<path d="M0 0 C1.32 0 2.64 0 4 0 C6.12 4.62 6.12 4.62 5 8 C2.5 5.69 2.5 5.69 0 3 C0 2.01 0 1.02 0 0 Z " fill="#AAD7D9" transform="translate(625,663)"/>
<path d="M0 0 C2.64 0 5.28 0 8 0 C8 1.98 8 3.96 8 6 C5 6 5 6 3.61 4.69 C2.41 3.12 1.2 1.56 0 0 Z " fill="#C3E1E0" transform="translate(671,663)"/>
<path d="M0 0 C1.32 0.33 2.64 0.66 4 1 C4 2.65 4 4.3 4 6 C2.02 6.99 2.02 6.99 0 8 C-1.12 6.25 -1.12 6.25 -2 4 C-1.12 1.75 -1.12 1.75 0 0 Z " fill="#CAE2E1" transform="translate(446,662)"/>
<path d="M0 0 C0.74 0.08 1.49 0.16 2.25 0.25 C0.96 3.13 -0.41 5.12 -2.75 7.25 C-3.41 6.92 -4.07 6.59 -4.75 6.25 C-4.75 5.92 -4.75 5.59 -4.75 5.25 C-5.41 4.92 -6.07 4.59 -6.75 4.25 C-3.43 0.31 -3.43 0.31 0 0 Z " fill="#35AAB4" transform="translate(777.75,236.75)"/>
<path d="M0 0 C0 3.65 -0.89 5.06 -3 8 C-5.06 9.38 -5.06 9.38 -7 10 C-7.66 9.67 -8.32 9.34 -9 9 C-6.03 6.03 -3.06 3.06 0 0 Z " fill="#C6D2CE" transform="translate(786,228)"/>
<path d="M0 0 C0.66 0.33 1.32 0.66 2 1 C1.17 1.76 0.35 2.53 -0.5 3.31 C-3.34 5.75 -3.34 5.75 -3 9 C-3.99 9.66 -4.98 10.32 -6 11 C-6 10.34 -6 9.68 -6 9 C-6.66 8.67 -7.32 8.34 -8 8 C-5.36 5.36 -2.72 2.72 0 0 Z " fill="#38A3AD" transform="translate(769,243)"/>
<path d="M0 0 C3 3.62 3 3.62 3 7 C0.03 6.5 0.03 6.5 -3 6 C-3.33 4.68 -3.66 3.36 -4 2 C-2.68 1.34 -1.36 0.68 0 0 Z " fill="#8CB5B9" transform="translate(496,687)"/>
<path d="M0 0 C1.95 2.92 2.45 4.63 3 8 C3.99 8.33 4.98 8.66 6 9 C5.67 10.32 5.34 11.64 5 13 C1.9 10.46 1.02 7.83 0 4 C0 2.68 0 1.36 0 0 Z " fill="#C3D0CB" transform="translate(451,677)"/>
<path d="M0 0 C0.66 0 1.32 0 2 0 C1.25 4.75 1.25 4.75 -1 7 C-1.99 6.67 -2.98 6.34 -4 6 C-2.73 3.96 -1.39 1.96 0 0 Z " fill="#BDD9D9" transform="translate(631,691)"/>
<path d="M0 0 C3.96 0 7.92 0 12 0 C11.67 0.66 11.34 1.32 11 2 C3.82 3.27 3.82 3.27 0 2 C0 1.34 0 0.68 0 0 Z " fill="#DAE9E3" transform="translate(286,0)"/>
<path d="M0 0 C3.3 0 6.6 0 10 0 C8 2 8 2 4.38 2.12 C3.26 2.08 2.15 2.04 1 2 C0.67 1.34 0.34 0.68 0 0 Z " fill="#2D8085" transform="translate(1168,467)"/>
<path d="M0 0 C5.28 0 10.56 0 16 0 C16 0.33 16 0.66 16 1 C10.72 1 5.44 1 0 1 C0 0.67 0 0.34 0 0 Z " fill="#E7F6F0" transform="translate(1166,363)"/>
<path d="M0 0 C0 0.99 0 1.98 0 3 C-1.98 3.33 -3.96 3.66 -6 4 C-4.61 1.22 -2.84 1.02 0 0 Z " fill="#E8EBCD" transform="translate(1180,418)"/>
<path d="M0 0 C0.33 0 0.66 0 1 0 C1 3.63 1 7.26 1 11 C0.67 11 0.34 11 0 11 C0 7.37 0 3.74 0 0 Z " fill="#E7F6F0" transform="translate(521,670)"/>
<path d="M0 0 C0.33 0 0.66 0 1 0 C1 2.97 1 5.94 1 9 C0.67 9 0.34 9 0 9 C0 6.03 0 3.06 0 0 Z " fill="#E7F6F0" transform="translate(1109,686)"/>
<path d="M0 0 C0.66 0.33 1.32 0.66 2 1 C0.51 2.49 0.51 2.49 -1 4 C-1.99 3.67 -2.98 3.34 -4 3 C-2.68 2.01 -1.36 1.02 0 0 Z " fill="#75BEC6" transform="translate(601,659)"/>
<path d="M0 0 C2.97 0 5.94 0 9 0 C9 0.33 9 0.66 9 1 C6.03 1 3.06 1 0 1 C0 0.67 0 0.34 0 0 Z " fill="#E7F6F0" transform="translate(253,33)"/>
<path d="M0 0 C0.33 1.32 0.66 2.64 1 4 C-0.32 4.33 -1.64 4.66 -3 5 C-2.01 3.35 -1.02 1.7 0 0 Z " fill="#565C5B" transform="translate(672,684)"/>
<path d="M0 0 C0.33 0 0.66 0 1 0 C1 2.64 1 5.28 1 8 C0.67 8 0.34 8 0 8 C0 5.36 0 2.72 0 0 Z " fill="#E7F6F0" transform="translate(709,665)"/>
<path d="M0 0 C0.33 0 0.66 0 1 0 C1 2.31 1 4.62 1 7 C0.67 7 0.34 7 0 7 C0 4.69 0 2.38 0 0 Z " fill="#E7F6F0" transform="translate(127,308)"/>
<path d="M0 0 C2.31 0 4.62 0 7 0 C7 0.33 7 0.66 7 1 C4.69 1 2.38 1 0 1 C0 0.67 0 0.34 0 0 Z " fill="#000002" transform="translate(1053,78)"/>
<path d="M0 0 C1.98 0 3.96 0 6 0 C6 0.33 6 0.66 6 1 C4.02 1 2.04 1 0 1 C0 0.67 0 0.34 0 0 Z " fill="#E7F6F0" transform="translate(797,658)"/>
<path d="M0 0 C0.33 0 0.66 0 1 0 C1 1.98 1 3.96 1 6 C0.67 6 0.34 6 0 6 C0 4.02 0 2.04 0 0 Z " fill="#E7F6F0" transform="translate(273,14)"/>
<path d="M0 0 C1.65 0 3.3 0 5 0 C5 0.33 5 0.66 5 1 C3.35 1 1.7 1 0 1 C0 0.67 0 0.34 0 0 Z " fill="#000002" transform="translate(552,693)"/>
<path d="M0 0 C0.33 0 0.66 0 1 0 C1 1.65 1 3.3 1 5 C0.67 5 0.34 5 0 5 C0 3.35 0 1.7 0 0 Z " fill="#000002" transform="translate(776,683)"/>
<path d="M0 0 C0.33 0 0.66 0 1 0 C1 1.65 1 3.3 1 5 C0.67 5 0.34 5 0 5 C0 3.35 0 1.7 0 0 Z " fill="#E7F6F0" transform="translate(156,199)"/>
<path d="M0 0 C0.99 0.33 1.98 0.66 3 1 C2.01 1 1.02 1 0 1 C0 0.67 0 0.34 0 0 Z " fill="#B7EDEB" transform="translate(486,691)"/>
<path d="M0 0 C1.49 0.99 1.49 0.99 3 2 C2.01 2 1.02 2 0 2 C0 1.34 0 0.68 0 0 Z " fill="#000002" transform="translate(671,690)"/>
<path d="M0 0 C0.99 0.5 0.99 0.5 2 1 C1.67 1.66 1.34 2.32 1 3 C0.67 2.01 0.34 1.02 0 0 Z " fill="#E7F6F0" transform="translate(671,680)"/>
<path d="M0 0 C0 3 0 3 0 3 Z " fill="#27D4DE" transform="translate(591,674)"/>
<path d="M0 0 C0 3 0 3 0 3 Z " fill="#97C0C6" transform="translate(578,670)"/>
<path d="M0 0 C1 4 1 4 1 4 Z " fill="#E7F6F0" transform="translate(478,665)"/>
<path d="M0 0 C0 3 0 3 0 3 Z " fill="#437274" transform="translate(184,658)"/>
<path d="M0 0 C4 1 4 1 4 1 Z " fill="#87E5E7" transform="translate(791,658)"/>
<path d="M0 0 C0.66 0.33 1.32 0.66 2 1 C1.01 1 0.02 1 -1 1 C-0.67 0.67 -0.34 0.34 0 0 Z " fill="#BFDBDB" transform="translate(1183,463)"/>
<path d="M0 0 C0 3 0 3 0 3 Z " fill="#B7EDEB" transform="translate(712,379)"/>
<path d="M0 0 C4 1 4 1 4 1 Z " fill="#000002" transform="translate(105,355)"/>
<path d="M0 0 C0.33 0.66 0.66 1.32 1 2 C0.34 1.67 -0.32 1.34 -1 1 C-0.67 0.67 -0.34 0.34 0 0 Z " fill="#7DAEB8" transform="translate(625,699)"/>
<path d="M0 0 C0.99 0.5 0.99 0.5 2 1 C1.01 1.5 1.01 1.5 0 2 C0 1.34 0 0.68 0 0 Z " fill="#488A9C" transform="translate(526,689)"/>
<path d="M0 0 C3 1 3 1 3 1 Z " fill="#E7F6F0" transform="translate(668,658)"/>
<path d="M0 0 C3 1 3 1 3 1 Z " fill="#B2D2D4" transform="translate(595,643)"/>
<path d="M0 0 C3 1 3 1 3 1 Z " fill="#E7F6F0" transform="translate(127,553)"/>
<path d="" fill="#E7F6F0" transform="translate(0,0)"/>
<path d="M0 0 C3 1 3 1 3 1 Z " fill="#E7F6F0" transform="translate(103,402)"/>
<path d="M0 0 C0.66 0.66 1.32 1.32 2 2 C1.34 2 0.68 2 0 2 C0 1.34 0 0.68 0 0 Z " fill="#B2D2D4" transform="translate(906,165)"/>
<path d="M0 0 C0.33 0.66 0.66 1.32 1 2 C0.34 1.67 -0.32 1.34 -1 1 C-0.67 0.67 -0.34 0.34 0 0 Z " fill="#E7F6F0" transform="translate(1114,133)"/>
<path d="" fill="#B2D2D4" transform="translate(0,0)"/>
<path d="M0 0 C2 1 2 1 2 1 Z " fill="#000002" transform="translate(1079,716)"/>
<path d="" fill="#488A9C" transform="translate(0,0)"/>
<path d="" fill="#E7F6F0" transform="translate(0,0)"/>
<path d="M0 0 C2 1 2 1 2 1 Z " fill="#E7F6F0" transform="translate(743,689)"/>
<path d="" fill="#E7F6F0" transform="translate(0,0)"/>
<path d="" fill="#000002" transform="translate(0,0)"/>
<path d="" fill="#E7F6F0" transform="translate(0,0)"/>
<path d="" fill="#E7F6F0" transform="translate(0,0)"/>
<path d="" fill="#E7F6F0" transform="translate(0,0)"/>
<path d="" fill="#E7F6F0" transform="translate(0,0)"/>
<path d="M0 0 C2 1 2 1 2 1 Z " fill="#136A70" transform="translate(469,658)"/>
<path d="M0 0 C2 1 2 1 2 1 Z " fill="#000002" transform="translate(145,564)"/>
<path d="" fill="#000002" transform="translate(0,0)"/>
<path d="" fill="#E7F6F0" transform="translate(0,0)"/>
<path d="M0 0 C2 1 2 1 2 1 Z " fill="#000002" transform="translate(1181,412)"/>
<path d="M0 0 C2 1 2 1 2 1 Z " fill="#000002" transform="translate(105,326)"/>
<path d="" fill="#000002" transform="translate(0,0)"/>
<path d="" fill="#E7F6F0" transform="translate(0,0)"/>
<path d="M0 0 C2 1 2 1 2 1 Z " fill="#87E5E7" transform="translate(896,168)"/>
<path d="M0 0 C2 1 2 1 2 1 Z " fill="#87E5E7" transform="translate(904,167)"/>
<path d="" fill="#E7F6F0" transform="translate(0,0)"/>
<path d="M0 0 C2 1 2 1 2 1 Z " fill="#27D4DE" transform="translate(878,153)"/>
<path d="" fill="#87E5E7" transform="translate(0,0)"/>
<path d="" fill="#E7F6F0" transform="translate(0,0)"/>
<path d="M0 0 C2 1 2 1 2 1 Z " fill="#E7F6F0" transform="translate(1026,23)"/>
<path d="" fill="#E7F6F0" transform="translate(0,0)"/>
<path d="" fill="#E7F6F0" transform="translate(0,0)"/>
<path d="" fill="#000002" transform="translate(0,0)"/>
<path d="" fill="#E7F6F0" transform="translate(0,0)"/>
<path d="" fill="#E7F6F0" transform="translate(0,0)"/>
<path d="" fill="#E7F6F0" transform="translate(0,0)"/>
<path d="" fill="#E7F6F0" transform="translate(0,0)"/>
<path d="" fill="#F2B822" transform="translate(0,0)"/>
<path d="" fill="#000002" transform="translate(0,0)"/>
<path d="" fill="#E7F6F0" transform="translate(0,0)"/>
<path d="" fill="#E7F6F0" transform="translate(0,0)"/>
<path d="" fill="#E7F6F0" transform="translate(0,0)"/>
<path d="" fill="#000002" transform="translate(0,0)"/>
<path d="" fill="#E7F6F0" transform="translate(0,0)"/>
<path d="" fill="#000002" transform="translate(0,0)"/>
<path d="" fill="#E7F6F0" transform="translate(0,0)"/>
<path d="" fill="#E7F6F0" transform="translate(0,0)"/>
<path d="" fill="#488A9C" transform="translate(0,0)"/>
<path d="" fill="#000002" transform="translate(0,0)"/>
<path d="" fill="#EA410D" transform="translate(0,0)"/>
<path d="" fill="#E7F6F0" transform="translate(0,0)"/>
<path d="" fill="#E7F6F0" transform="translate(0,0)"/>
<path d="" fill="#E7F6F0" transform="translate(0,0)"/>
<path d="" fill="#E7F6F0" transform="translate(0,0)"/>
<path d="" fill="#E7F6F0" transform="translate(0,0)"/>
<path d="" fill="#488A9C" transform="translate(0,0)"/>
<path d="" fill="#E7F6F0" transform="translate(0,0)"/>
<path d="" fill="#000002" transform="translate(0,0)"/>
<path d="" fill="#E7F6F0" transform="translate(0,0)"/>
<path d="" fill="#E7F6F0" transform="translate(0,0)"/>
<path d="" fill="#488A9C" transform="translate(0,0)"/>
<path d="" fill="#E7F6F0" transform="translate(0,0)"/>
<path d="" fill="#E7F6F0" transform="translate(0,0)"/>
<path d="" fill="#488A9C" transform="translate(0,0)"/>
<path d="" fill="#000002" transform="translate(0,0)"/>
<path d="" fill="#E7F6F0" transform="translate(0,0)"/>
<path d="" fill="#E7F6F0" transform="translate(0,0)"/>
<path d="" fill="#488A9C" transform="translate(0,0)"/>
<path d="" fill="#E7F6F0" transform="translate(0,0)"/>
<path d="" fill="#488A9C" transform="translate(0,0)"/>
<path d="" fill="#488A9C" transform="translate(0,0)"/>
<path d="" fill="#488A9C" transform="translate(0,0)"/>
<path d="" fill="#E7F6F0" transform="translate(0,0)"/>
<path d="" fill="#E7F6F0" transform="translate(0,0)"/>
<path d="" fill="#E7F6F0" transform="translate(0,0)"/>
<path d="" fill="#E7F6F0" transform="translate(0,0)"/>
<path d="" fill="#E7F6F0" transform="translate(0,0)"/>
<path d="" fill="#E7F6F0" transform="translate(0,0)"/>
<path d="" fill="#E7F6F0" transform="translate(0,0)"/>
<path d="" fill="#E7F6F0" transform="translate(0,0)"/>
<path d="" fill="#E7F6F0" transform="translate(0,0)"/>
<path d="" fill="#488A9C" transform="translate(0,0)"/>
<path d="" fill="#E7F6F0" transform="translate(0,0)"/>
<path d="" fill="#488A9C" transform="translate(0,0)"/>
<path d="" fill="#488A9C" transform="translate(0,0)"/>
<path d="" fill="#E7F6F0" transform="translate(0,0)"/>
<path d="" fill="#E7F6F0" transform="translate(0,0)"/>
<path d="" fill="#E7F6F0" transform="translate(0,0)"/>
<path d="" fill="#488A9C" transform="translate(0,0)"/>
<path d="" fill="#E7F6F0" transform="translate(0,0)"/>
<path d="" fill="#E7F6F0" transform="translate(0,0)"/>
<path d="" fill="#E7F6F0" transform="translate(0,0)"/>
<path d="" fill="#E7F6F0" transform="translate(0,0)"/>
<path d="" fill="#000002" transform="translate(0,0)"/>
<path d="" fill="#000002" transform="translate(0,0)"/>
<path d="" fill="#000002" transform="translate(0,0)"/>
<path d="" fill="#E7F6F0" transform="translate(0,0)"/>
<path d="" fill="#E7F6F0" transform="translate(0,0)"/>
<path d="" fill="#27D4DE" transform="translate(0,0)"/>
<path d="" fill="#27D4DE" transform="translate(0,0)"/>
<path d="" fill="#E7F6F0" transform="translate(0,0)"/>
<path d="" fill="#27D4DE" transform="translate(0,0)"/>
<path d="" fill="#27D4DE" transform="translate(0,0)"/>
<path d="" fill="#488A9C" transform="translate(0,0)"/>
<path d="" fill="#E7F6F0" transform="translate(0,0)"/>
<path d="" fill="#488A9C" transform="translate(0,0)"/>
<path d="" fill="#E7F6F0" transform="translate(0,0)"/>
<path d="" fill="#E7F6F0" transform="translate(0,0)"/>
<path d="" fill="#E7F6F0" transform="translate(0,0)"/>
<path d="" fill="#E7F6F0" transform="translate(0,0)"/>
<path d="" fill="#488A9C" transform="translate(0,0)"/>
<path d="" fill="#000002" transform="translate(0,0)"/>
<path d="" fill="#488A9C" transform="translate(0,0)"/>
<path d="" fill="#488A9C" transform="translate(0,0)"/>
<path d="" fill="#488A9C" transform="translate(0,0)"/>
<path d="" fill="#488A9C" transform="translate(0,0)"/>
<path d="" fill="#E7F6F0" transform="translate(0,0)"/>
<path d="" fill="#E7F6F0" transform="translate(0,0)"/>
<path d="" fill="#27D4DE" transform="translate(0,0)"/>
<path d="" fill="#E7F6F0" transform="translate(0,0)"/>
<path d="" fill="#E7F6F0" transform="translate(0,0)"/>
<path d="" fill="#000002" transform="translate(0,0)"/>
<path d="" fill="#E7F6F0" transform="translate(0,0)"/>
<path d="" fill="#E7F6F0" transform="translate(0,0)"/>
<path d="" fill="#E7F6F0" transform="translate(0,0)"/>
<path d="" fill="#000002" transform="translate(0,0)"/>
<path d="" fill="#488A9C" transform="translate(0,0)"/>
<path d="" fill="#000002" transform="translate(0,0)"/>
<path d="" fill="#E7F6F0" transform="translate(0,0)"/>
<path d="" fill="#27D4DE" transform="translate(0,0)"/>
<path d="" fill="#488A9C" transform="translate(0,0)"/>
<path d="" fill="#488A9C" transform="translate(0,0)"/>
<path d="" fill="#E7F6F0" transform="translate(0,0)"/>
<path d="" fill="#000002" transform="translate(0,0)"/>
<path d="" fill="#E7F6F0" transform="translate(0,0)"/>
<path d="" fill="#EA410D" transform="translate(0,0)"/>
<path d="" fill="#E7F6F0" transform="translate(0,0)"/>
</svg>
